<svg xmlns="http://www.w3.org/2000/svg" width="21.883" height="25.009" viewBox="0 0 21.883 25.009">
  <path id="copy" d="M21.2,3.221,18.662.687A2.345,2.345,0,0,0,17,0H8.6A2.345,2.345,0,0,0,6.252,2.345V4.689H2.345A2.345,2.345,0,0,0,0,7.034V22.665a2.345,2.345,0,0,0,2.345,2.345H13.286a2.345,2.345,0,0,0,2.345-2.345V20.32h3.908a2.345,2.345,0,0,0,2.345-2.345V4.879A2.345,2.345,0,0,0,21.2,3.221Zm-8.2,19.444H2.638a.293.293,0,0,1-.293-.293V7.327a.293.293,0,0,1,.293-.293H6.252V17.975A2.345,2.345,0,0,0,8.6,20.32h4.689v2.052A.293.293,0,0,1,12.993,22.665Zm6.252-4.689H8.89a.293.293,0,0,1-.293-.293V2.638a.293.293,0,0,1,.293-.293h5.178v4.3A1.172,1.172,0,0,0,15.24,7.815h4.3v9.867a.293.293,0,0,1-.293.293Zm.293-12.5H16.412V2.345h.47a.293.293,0,0,1,.207.086l2.363,2.363A.293.293,0,0,1,19.539,5Z" fill="#fff"/>
</svg>
