<svg id="KUCOIN-logo-3.0" xmlns="http://www.w3.org/2000/svg" width="237.153" height="54.645" viewBox="0 0 237.153 54.645">
  <path id="形状" d="M125.943,61.723v-3.91a15.757,15.757,0,0,0-1.369-6.256,8.064,8.064,0,0,0-1.955-2.542,14.044,14.044,0,0,0-3.91-2.737,13.613,13.613,0,0,0-4.888-.978,10.436,10.436,0,0,0-4.888.978,16.77,16.77,0,0,0-3.91,2.542,12.552,12.552,0,0,0-1.955,2.542,17.206,17.206,0,0,0-.978,2.933,21.77,21.77,0,0,0-.391,3.324v7.82a15.757,15.757,0,0,0,1.369,6.256,8.064,8.064,0,0,0,1.955,2.542,10.417,10.417,0,0,0,3.91,2.542,14.5,14.5,0,0,0,4.888.978,10.436,10.436,0,0,0,4.888-.978,16.769,16.769,0,0,0,3.91-2.542,12.551,12.551,0,0,0,1.955-2.542,17.2,17.2,0,0,0,.978-2.933,21.771,21.771,0,0,0,.391-3.324,23.418,23.418,0,0,0,0-3.715Zm-6.256,0v3.91c0,.782-.2,1.76-.2,2.542a2.22,2.22,0,0,1-.587,1.564,4.089,4.089,0,0,1-.782,1.173,2.847,2.847,0,0,1-1.76,1.173,4.959,4.959,0,0,1-2.346.391,9.813,9.813,0,0,1-2.346-.391,5.548,5.548,0,0,1-1.76-1.173,4.091,4.091,0,0,1-.782-1.173,4.6,4.6,0,0,1-.391-1.564,11.148,11.148,0,0,1-.2-2.542v-7.82c0-.782.2-1.76.2-2.542a3.683,3.683,0,0,1,.391-1.564,4.09,4.09,0,0,1,.782-1.173,3.517,3.517,0,0,1,1.76-1.173,4.959,4.959,0,0,1,2.346-.391,9.813,9.813,0,0,1,2.346.391,9.181,9.181,0,0,1,1.76,1.173,4.09,4.09,0,0,1,.782,1.173c.2.587.391.978.587,1.564a11.149,11.149,0,0,1,.2,2.542Z" transform="translate(60.573 -34.4)" fill="#23af91"/>
  <path id="路径" d="M152.03,45.987a.518.518,0,0,0-.587-.587H146.36a.518.518,0,0,0-.587.587V65.342L133.065,45.6c0-.2-.2-.2-.391-.2h-4.888a.518.518,0,0,0-.587.587V77.268a.518.518,0,0,0,.587.587h5.279a.518.518,0,0,0,.587-.587V57.913L146.36,77.659c0,.2.2.2.391.2h4.888a.518.518,0,0,0,.587-.587Z" transform="translate(84.928 -34.305)" fill="#23af91"/>
  <path id="路径_1_" d="M125.152,45.987a.518.518,0,0,0-.587-.587h-5.279a.518.518,0,0,0-.587.587V77.268a.518.518,0,0,0,.587.587h5.279a.518.518,0,0,0,.587-.587Z" transform="translate(76.81 -34.305)" fill="#23af91"/>
  <path id="路径_2_" d="M93.252,61.818v-3.91c0-.782.2-1.76.2-2.542a5.122,5.122,0,0,1,5.279-4.5,5.287,5.287,0,0,1,4.5,2.151,11.959,11.959,0,0,1,.978,2.346.191.191,0,0,0,.2.2h6.256a.191.191,0,0,0,.2-.2,12.014,12.014,0,0,0-6.256-8.993,14.024,14.024,0,0,0-5.67-1.173,11.937,11.937,0,0,0-8.8,3.519,9.394,9.394,0,0,0-2.737,4.888,40.563,40.563,0,0,0-.587,8.016,40.562,40.562,0,0,0,.587,8.016,11.736,11.736,0,0,0,2.542,4.888,11.937,11.937,0,0,0,8.8,3.519,14.024,14.024,0,0,0,5.67-1.173,11.686,11.686,0,0,0,6.256-8.993.191.191,0,0,0-.2-.2H104.4a.191.191,0,0,0-.2.2,11.959,11.959,0,0,1-.978,2.346,5.065,5.065,0,0,1-4.5,2.151,4.973,4.973,0,0,1-5.279-4.5,11.148,11.148,0,0,1-.2-2.542C93.252,64.751,93.252,63.382,93.252,61.818Z" transform="translate(46.342 -34.496)" fill="#23af91"/>
  <path id="路径_3_" d="M59.956,45.987a.518.518,0,0,0-.587-.587H54.287a.518.518,0,0,0-.587.587V77.268a.518.518,0,0,0,.587.587h5.279a.518.518,0,0,0,.587-.587V68.079L64.258,63l8.6,14.663c0,.2.2.2.391.2h6.256c.2,0,.391-.2.2-.391L68.363,58.3,78.725,45.987c.2-.2.2-.587-.2-.587H71.687a.191.191,0,0,0-.2.2L60.152,59.281V45.987Z" transform="translate(14.728 -34.305)" fill="#23af91"/>
  <path id="路径_4_" d="M82.322,72.576a5.981,5.981,0,0,1-5.67-5.865V45.987a.518.518,0,0,0-.587-.587H70.787a.518.518,0,0,0-.587.587V66.515c0,7.234,5.279,11.731,11.926,11.731s11.926-4.5,11.926-11.731V45.987a.518.518,0,0,0-.587-.587H88.187a.518.518,0,0,0-.587.587V66.515A5.587,5.587,0,0,1,82.322,72.576Z" transform="translate(30.488 -34.305)" fill="#23af91"/>
  <path id="形状_1_" d="M34.732,67.048,50.959,83.275,61.126,73.108a4.709,4.709,0,0,1,6.647,6.647L54.087,93.05a4.6,4.6,0,0,1-6.452,0L28.084,73.5V85.23a4.692,4.692,0,1,1-9.384,0V49.061a4.692,4.692,0,1,1,9.384,0V60.6L47.635,41.045a4.6,4.6,0,0,1,6.452,0l13.49,13.49a4.709,4.709,0,0,1-6.647,6.647L50.764,51.016Zm16.227-4.5h0a4.668,4.668,0,0,0-4.3,2.933,4.615,4.615,0,0,0,6.061,6.061,4.668,4.668,0,0,0,2.933-4.3,4.673,4.673,0,0,0-4.692-4.692Z" transform="translate(-18.7 -39.725)" fill="#23af91" fill-rule="evenodd"/>
</svg>
