<svg xmlns="http://www.w3.org/2000/svg" width="277" height="55.4" viewBox="0 0 277 55.4">
  <g id="binance" transform="translate(0.005)">
    <path id="Path_382" data-name="Path 382" d="M30.671,23.278l10.76-10.755L52.2,23.287l6.257-6.261L41.431,0,24.41,17.021Z" transform="translate(-13.732)" fill="#f3ba2f"/>
    <path id="Path_383" data-name="Path 383" d="M0,0H8.852V8.852H0Z" transform="translate(-0.005 27.701) rotate(-45)" fill="#f3ba2f"/>
    <path id="Path_384" data-name="Path 384" d="M30.66,73.4l10.76,10.76L52.184,73.4l6.261,6.253,0,0L41.42,96.683,24.4,79.666l-.009-.009Z" transform="translate(-13.721 -41.283)" fill="#f3ba2f"/>
    <path id="Path_385" data-name="Path 385" d="M0,0H8.852V8.852H0Z" transform="translate(42.875 27.702) rotate(-45)" fill="#f3ba2f"/>
    <path id="Path_386" data-name="Path 386" d="M61.487,55.133,55.138,48.78l-4.7,4.7-.543.538-1.111,1.111-.009.009.009.013,6.349,6.345,6.349-6.353,0,0Z" transform="translate(-27.439 -27.436)" fill="#f3ba2f"/>
    <g id="Group_106" data-name="Group 106" transform="translate(65.159 12.933)">
      <path id="Path_387" data-name="Path 387" d="M148.37,30.68h13.617q5.067,0,7.666,2.625a6.782,6.782,0,0,1,2.008,4.953v.083a7.294,7.294,0,0,1-.311,2.223,6.826,6.826,0,0,1-.836,1.75,6.463,6.463,0,0,1-1.208,1.365,7.841,7.841,0,0,1-1.483,1.006,9.915,9.915,0,0,1,4.012,2.625,6.723,6.723,0,0,1,1.461,4.594v.083a7.631,7.631,0,0,1-.774,3.527,6.879,6.879,0,0,1-2.218,2.52,10.524,10.524,0,0,1-3.479,1.51,18.684,18.684,0,0,1-4.5.5H148.37Zm12.252,11.875a6.734,6.734,0,0,0,3.4-.735,2.538,2.538,0,0,0,1.251-2.372v-.083a2.6,2.6,0,0,0-1.09-2.245,5.393,5.393,0,0,0-3.146-.774h-6.371v6.209Zm1.72,11.836a6.213,6.213,0,0,0,3.369-.774,2.66,2.66,0,0,0,1.216-2.415v-.083a2.761,2.761,0,0,0-1.133-2.328,6,6,0,0,0-3.649-.875h-7.478v6.476Z" transform="translate(-148.37 -30.189)" fill="#f3ba2f"/>
      <path id="Path_388" data-name="Path 388" d="M223.88,30.68h6.463V60.058H223.88Z" transform="translate(-190.84 -30.189)" fill="#f3ba2f"/>
      <path id="Path_389" data-name="Path 389" d="M261,30.68h5.96l13.774,18.08V30.68h6.38V60.058h-5.5L267.388,41.383V60.058H261Z" transform="translate(-211.717 -30.189)" fill="#f3ba2f"/>
      <path id="Path_390" data-name="Path 390" d="M349.213,30.2h5.951l12.589,29.588h-6.747l-2.687-6.59H345.9l-2.687,6.59h-6.59Zm6.8,17.292-3.912-9.53-3.894,9.53Z" transform="translate(-254.249 -29.919)" fill="#f3ba2f"/>
      <path id="Path_391" data-name="Path 391" d="M423.74,30.68h5.96l13.766,18.08V30.68h6.38V60.058h-5.5L430.12,41.383V60.058h-6.38Z" transform="translate(-303.249 -30.189)" fill="#f3ba2f"/>
      <path id="Path_392" data-name="Path 392" d="M517.189,59.943a15.284,15.284,0,0,1-6-1.173,14.514,14.514,0,0,1-7.933-8.016,15.551,15.551,0,0,1-1.133-5.92v-.083A15.245,15.245,0,0,1,506.4,34.026a14.541,14.541,0,0,1,4.813-3.273,15.709,15.709,0,0,1,6.209-1.195,19.468,19.468,0,0,1,3.754.337,15.6,15.6,0,0,1,3.089.923,13.346,13.346,0,0,1,2.56,1.426,17.3,17.3,0,0,1,2.188,1.847l-4.109,4.743a15.625,15.625,0,0,0-3.5-2.437,8.957,8.957,0,0,0-4.008-.875,8.13,8.13,0,0,0-6.126,2.687,9.228,9.228,0,0,0-1.768,2.919,10.006,10.006,0,0,0-.626,3.549v.083a10.156,10.156,0,0,0,.626,3.544,9.328,9.328,0,0,0,1.75,2.936,8.077,8.077,0,0,0,6.126,2.73,8.979,8.979,0,0,0,4.257-.923,16.462,16.462,0,0,0,3.461-2.52l4.113,4.157a20.971,20.971,0,0,1-2.35,2.188,14,14,0,0,1-2.665,1.658,13.807,13.807,0,0,1-3.168,1.046,18.864,18.864,0,0,1-3.842.368Z" transform="translate(-347.332 -29.557)" fill="#f3ba2f"/>
      <path id="Path_393" data-name="Path 393" d="M581.47,30.68h22.11v5.75H587.828v5.96H601.7v5.75H587.85v6.17H603.8v5.75H581.483Z" transform="translate(-391.962 -30.189)" fill="#f3ba2f"/>
    </g>
  </g>
</svg>
