<svg xmlns="http://www.w3.org/2000/svg" width="176.678" height="66.443" viewBox="0 0 176.678 66.443">
  <g id="bybit-1" transform="translate(-95.847 -372.967)">
    <path id="Path_416" data-name="Path 416" d="M101.358,396.334c-1.42-1.06-3.053-1.755-4.56-2.664-.332-.2-.86-.242-.826-1.039l5.587,3.048.153-.265c-1.812-1.38-4-2.222-5.715-3.757,2.519,1,4.72,2.578,7.108,3.8a4.58,4.58,0,0,0,1.879.957,4.217,4.217,0,0,0-1.71-1.148c-1.955-1.474-4.125-2.606-6.182-3.918-.4-.252-.908-.387-1.039-.993,2.64,1.124,4.911,2.931,7.458,4.219l.171-.279-7.623-4.961q.115-.177.23-.353c2.829,1.579,5.463,3.49,8.35,5.238-.284-.652-.281-.657-.7-.938q-3.356-2.254-6.715-4.5c-.177-.119-.35-.242-.53-.357s-.418-.265-.292-.49c.2-.358.444-.043.61.068,2.3,1.532,4.587,3.088,6.892,4.617.353.234.647.656,1.254.578a3.506,3.506,0,0,0-1.369-1.21c-2.194-1.563-4.411-3.1-6.609-4.653-.2-.14-.66-.243-.428-.588.218-.324.51.013.72.16,2.21,1.541,4.406,3.1,6.618,4.639.355.246.659.628,1.179.648.047-.527-.374-.612-.627-.8-2.273-1.7-4.562-3.37-6.834-5.068-.284-.212-.943-.422-.672-.77.348-.447.727.186,1.02.4,2.584,1.87,5.141,3.78,7.708,5.673.19.14.342.373.725.286-.029-.443-.408-.6-.684-.809q-3.826-2.963-7.658-5.917-.21-.163-.414-.334c-.156-.13-.424-.242-.272-.491.216-.351.44-.045.6.08,1.356,1.029,2.7,2.073,4.046,3.112l4.634,3.58a1.666,1.666,0,0,0-.862-1.242c-2.474-2.015-4.96-4.015-7.436-6.028-.2-.163-.642-.33-.424-.62.3-.4.561.092.758.25,2.769,2.213,5.517,4.452,8.277,6.676a1.1,1.1,0,0,0,1.175.421l-9.717-8.3.308-.371,9.14,7.683a1.173,1.173,0,0,0-.607-1.1q-3.369-3.014-6.759-6.005-.519-.457-1.022-.932c-.144-.137-.409-.286-.232-.51.239-.3.442-.009.61.14q2.153,1.9,4.293,3.817c1.585,1.419,3.165,2.844,4.752,4.26.172.152.309.409.748.263a11.294,11.294,0,0,0-2.025-2.095c-2.351-2.21-4.732-4.388-7.09-6.591-.232-.216-.777-.466-.47-.8.342-.375.58.2.8.4,2.423,2.237,4.825,4.5,7.241,6.744a1.124,1.124,0,0,0,1.141.455l-8.6-8.481c.7-.248.877.191,1.113.422q6.739,6.58,13.463,13.172a3.313,3.313,0,0,0,1.125.949l.217.209.215.211.215.211.215.21.235.191.131.137c.014-.033.03-.066.046-.1l-.194-.023c.029-.145-.045-.217-.174-.252l-.21-.218-.208-.218-.21-.217-.2-.223c-.134-.434-.511-.671-.8-.971q-6.66-6.81-13.326-13.613a1.078,1.078,0,0,1-.5-1.142c3.325,3.033,6.088,6.385,9.293,9.265l.245-.234-8.787-9.453.3-.289c2.769,2.522,5.051,5.546,7.889,8.171.171-.647-.244-.842-.474-1.1-1.974-2.231-3.963-4.448-5.944-6.672-.166-.185-.317-.383-.47-.578-.1-.133-.283-.277-.111-.451.226-.23.376-.01.513.143,1.062,1.192,2.118,2.388,3.18,3.579q2.266,2.54,4.541,5.072a3.3,3.3,0,0,0,.473.35c.164-.556-.241-.754-.46-1.013-2.284-2.711-4.582-5.411-6.865-8.124-.161-.19-.583-.421-.308-.67.35-.319.53.154.716.372,2.021,2.377,4.03,4.765,6.056,7.137.3.356.541.822,1.241.787l-7.122-8.862c.66-.355.774.166.987.427,1.769,2.171,3.52,4.357,5.291,6.528a1.561,1.561,0,0,0,1.206.814c-.939-1.237-1.729-2.289-2.533-3.332-1.058-1.377-2.14-2.736-3.182-4.126-.2-.273-.741-.642-.342-.951.352-.272.52.338.712.584,2.075,2.653,4.129,5.322,6.192,7.984a1.413,1.413,0,0,0,1.044.715l-7.062-9.641.395-.295,6.438,8.686c.262-.622-.114-.9-.338-1.22-1.619-2.328-3.268-4.636-4.879-6.969-.139-.2-.653-.484-.214-.756.356-.222.5.274.669.514,1.575,2.229,3.14,4.467,4.713,6.7a1.068,1.068,0,0,0,.92.61l-5.33-8.031c.725-.253.823.3,1.028.6,1.712,2.523,3.4,5.063,5.109,7.588.209.309.335.713.939.738l-5.807-9.094.408-.278,4.338,6.691c.32-.578-.018-.826-.177-1.093-.964-1.612-1.954-3.21-2.913-4.824-.135-.227-.584-.524-.149-.773.288-.164.448.264.586.491,1.093,1.783,2.169,3.576,3.264,5.358A1.8,1.8,0,0,0,118.269,380l-3.9-6.786.407-.249,3.255,5.483.323-.175-2.713-5.064.324-.184c1.169,1.526,1.859,3.37,3.064,4.89-.458-1.676-1.5-3.086-2.053-4.746.8.336.968,1.185,1.382,1.832.439.687.629,1.535,1.338,2.06a31.311,31.311,0,0,0-1.59-3.7c.656-.094.722.412.895.742,1.4,2.664,2.775,5.336,4.167,8a2.207,2.207,0,0,0,.632.962l.144.137-.093-.188a22.343,22.343,0,0,0-1.771-3.711c-.9-1.825-1.812-3.646-2.755-5.543.718-.188.761.322.932.657,1.01,1.981,1.884,4.03,3.043,5.934.072.14.144.282.216.423s.148.28.222.42.146.281.219.421.149.279.225.418c.027.165.053.33.228.415.021.169.038.341.24.4a6.164,6.164,0,0,0,1.3,2.531c.036.047-.042.249.138.1l-.154-.086a6.138,6.138,0,0,0-1.257-2.573.421.421,0,0,0-.2-.433.448.448,0,0,0-.208-.43.472.472,0,0,0-.208-.43l-.21-.428-.21-.428c-.07-.142-.139-.285-.21-.428l-2.932-6.435c1.115.473.993,1.576,1.674,2.029.31-.492-.377-.829.018-1.64l3.114,6.677.242-.108-2.465-5.691.364-.179c1.174,2.017,1.816,4.314,3.026,6.322-.493-1.869-1.522-3.538-2.03-5.4l.052-.05c.623.037.627.6.8.989a17.773,17.773,0,0,0,1.505,2.969l-1.1-3.039.1-.1c.68.2.614.875.845,1.354.287.594.525,1.213.856,1.8.069-.793-.555-1.41-.539-2.183l.06-.063c.833.324.588,1.326,1.141,1.833.184-.149.042-.329.066-.486.039-.038.078-.076.116-.115.678.277.587.991.859,1.5.1.192.19.706.4.018.061-.2.316.089.357.2.268.692.936,1.17.974,2,.018.393.623.336.836.784a19.06,19.06,0,0,1-.518,18.391,7.362,7.362,0,0,1-.675,1.185c-.49.588-.159.739.4.886-.169.338-.745-.013-.825.447-.3.031-.7-.18-.786.344l-.2.259a.381.381,0,0,0-.226.413c-.164.034-.369-.006-.419.231a.38.38,0,0,0-.223.416c-.168.032-.382-.024-.43.232-.228.012-.4.093-.416.352l-.249.3c-.229.008-.394.086-.389.352-.167.027-.34.042-.4.246-.182.03-.373.043-.47.239-.227.064-.273.215-.2.421-.17.036-.368.018-.446.232l-.539-.012-.512.413-.328.24c-.24-.007-.484-.02-.516.314a.29.29,0,0,0-.246.322c-.272-.087-.537-.393-.824-.027l-.288.247c-.215,0-.45-.049-.576.2-.166.019-.357-.015-.424.207-.216.015-.454-.056-.618.161-.138.046-.251.115-.266.279-.229-.087-.47-.34-.659.054l-.573-.068c-.23.024-.49-.043-.647.209l-.418,0a.581.581,0,0,0-.521.3l-.6-.1c-.2.03-.448-.054-.583.19l-.237.032.014.009c-.035-.241-.239-.18-.389-.22l-.745.008-.387-.018c-.223.038-.494-.054-.622.235l-.213-.019.017.013c-.068-.21-.255-.2-.421-.223a1.687,1.687,0,0,0-.923-.2l-.4-.017c-.227-.067-.472-.3-.654.069l-.381-.066.016.013-.209-.223a1.606,1.606,0,0,0-.9-.208.357.357,0,0,1-.187-.011l.021.013-.3-.183a5.1,5.1,0,0,1-2.057-.681l.01.007c-.686-.165-1.136-.761-1.771-.991a19.176,19.176,0,0,1-2.544-1.572c-.429-.236-.7-.772-1.027-1.182-.434-.542-.8-1.159-1.58-1.269.325-1.125-.556-1.028-1.194-1.179.221-.49.467-.838-.216-1.348a4.213,4.213,0,0,1-.855-1.588l.038-.038.572.077.613.243c.143.071.285.143.427.215l.447.185c.127.114.259.2.419.053l-.28-.209-.436-.2-.428-.215-.6-.255c-.307-.164-.606-.342-.921-.488-.229-.105-.532-.2-.417-.492.136-.341.412-.085.614,0,.615.243,1.223.5,1.834.753l.431.211.44.194c.12.122.244.2.4.059l-.271-.206-.428-.214-.419-.225c-.94-.739-2.308-.8-3.114-1.751l.134-.246,4.082,1.778.428.2c.083.076.174.129.251.008.013-.02-.07-.1-.108-.155l-.424-.227c-1.548-.951-3.316-1.527-4.825-2.545l.2-.372,5.8,2.836c.055-.1.108-.2.162-.3L96.1,395.62l.225-.409,4.881,2.371a1.887,1.887,0,0,0,1.22.483,1.746,1.746,0,0,0-1.067-.663,44.507,44.507,0,0,0-4.412-2.476c-.346-.2-.838-.262-.91-.971,1.863.7,3.419,1.837,5.162,2.572l.58.28a1.242,1.242,0,0,0,1.24.464,2.491,2.491,0,0,0-1.076-.654l-.58-.283Zm10.316.56.1.088-.094-.1-.207-.218a.426.426,0,0,0-.427-.215l-.22-.2a.4.4,0,0,0-.429-.21.268.268,0,0,0-.031-.076c-.01-.013-.038-.012-.057-.016l.091.09a.4.4,0,0,0,.423.216l.2.218a.423.423,0,0,0,.426.217Zm9.8-1.289a.349.349,0,0,0,.043.091c.011.013.044.008.067.012l-.124-.088c-.01-.132-.068-.215-.212-.213l-.075-.131c0,.022-.008.054,0,.065a.361.361,0,0,0,.085.052Zm-2.768-.849c.072.071.143.142.216.212l.125.136.05-.1-.19-.025c0-.145-.063-.22-.212-.215.005-.146-.06-.222-.211-.214.008-.149-.06-.224-.212-.214.009-.15-.058-.225-.211-.214.01-.151-.057-.226-.212-.214.012-.153-.055-.227-.212-.214.015-.154-.052-.229-.21-.215a.241.241,0,0,0-.116-.325c-.015-.009-.08.024-.083.043a.248.248,0,0,0,.194.286l.214.212.214.212.213.211.214.212.214.212Zm.851-.214c.029.065-.005.239.149.086l-.161-.074c0-.144-.063-.219-.211-.215,0-.144-.061-.222-.213-.213.007-.148-.056-.228-.212-.212.009-.153-.056-.23-.215-.211a.3.3,0,0,0-.206-.409c-.024-.008-.09.027-.09.041,0,.2.137.3.307.356l.212.214.213.213.214.212a.2.2,0,0,0,.214.211Zm-3.223.033c.034.11.084.17.186.058l-.143-.1-.211-.215-.21-.215-.212-.214-.212-.214-.214-.211-.212-.213-.215-.211-.2-.11c.033.067.064.135.1.2.07.072.141.144.212.214s.145.14.219.208.146.14.22.209.148.137.224.2.147.139.221.207.15.136.225.2Zm3.433-.88a.205.205,0,0,0,.215.212c.03.255.152.416.428.422,0,.142.064.222.214.212,0,.143.064.221.215.21.006.069-.047.2.113.115l-.13-.1-.21-.211a.209.209,0,0,0-.213-.214c-.028-.255-.147-.419-.423-.427,0-.142-.06-.223-.211-.215,0-.147-.059-.228-.217-.209.008-.094.046-.217-.128-.129l.137.12Zm.641-.43c.032.052-.013.235.139.081l-.151-.069c0-.145-.053-.23-.212-.213,0-.083.049-.211-.122-.125l.132.114.213.212Zm-1.278-.423c-.01.1-.043.217.129.127l-.134-.123-.2-.224-.205-.221a.881.881,0,0,0-.6-.673l-.209-.224a.815.815,0,0,0-.465-.6l-.2-.224a2.622,2.622,0,0,0-.991-1.12l-.291-.363a2.1,2.1,0,0,0-1.178-1.124,2.3,2.3,0,0,0,1.034,1.24l.285.373a2.552,2.552,0,0,0,1.024,1.1l.223.214a.854.854,0,0,0,.481.578l.207.215a.852.852,0,0,0,.631.648l.215.211c.028.131.094.213.243.182Zm-1.094.029c.021.1.026.229.175.1l-.14-.13-.2-.221-.2-.221a3.18,3.18,0,0,0-1.22-1.332l-.208-.226-.215-.1c.033.073.066.145.1.218l.206.215a3.157,3.157,0,0,0,1.26,1.293c.072.07.144.139.219.208S117.958,392.808,118.037,392.872Zm2.8-.247c.036.046-.01.236.142.081l-.157-.065c0-.138-.056-.227-.213-.213A.342.342,0,0,0,120.4,392l-.212-.216c-.008-.133-.068-.215-.212-.213,0-.14-.058-.226-.212-.214,0-.087.038-.225-.135-.121l.139.118a.2.2,0,0,0,.214.211c.008.134.068.217.214.211,0,.143.062.225.216.21a.359.359,0,0,0,.211.425Zm-4.09.044c.025.1.041.223.183.092l-.135-.135-.207-.219-.2-.22q-.21-.216-.415-.437l-.208-.218a9.6,9.6,0,0,0-2.772-2.649,16.532,16.532,0,0,0,2.65,2.761c.071.071.141.143.213.212s.143.14.216.208.144.14.216.209.149.136.226.2S116.666,392.606,116.748,392.669Zm3.011-.241c.008.093-.015.227.15.113l-.138-.123-.2-.224a.476.476,0,0,0-.4-.448l-.214-.214c-.034-.083-.031-.242-.183-.09l.139.137c.067.073.136.146.205.218a.475.475,0,0,0,.419.434C119.553,392.359,119.615,392.441,119.759,392.428Zm-7.866,6.589-.212-.213a.41.41,0,0,0-.426-.215l-.214-.209a.406.406,0,0,0-.423-.219l-.217-.207a.4.4,0,0,0-.421-.218l-.218-.207a.4.4,0,0,0-.423-.216l-.215-.209a.4.4,0,0,0-.426-.212.3.3,0,0,0-.034-.078c-.011-.013-.039-.011-.059-.015l.092.093a.4.4,0,0,0,.425.213l.209.216a.407.407,0,0,0,.429.21l.207.217a.411.411,0,0,0,.431.209l.208.216a.407.407,0,0,0,.43.209l.211.214a.4.4,0,0,0,.427.213l.213.211a.328.328,0,0,0,.038.077c.012.013.041.009.062.013Zm9.369-7.028c.035.057,0,.251.152.079l-.165-.066c-.006-.079.045-.218-.127-.12Zm-7.7.041.216.1-.09-.22-.209-.222-.213-.213-.213-.213a16.58,16.58,0,0,0-3.276-3.015,16.362,16.362,0,0,0,3.132,3.161l.215.211.214.212Zm8.553-.255c0,.14.058.229.216.212a.331.331,0,0,0,.21.426c.037.044-.01.235.141.08l-.157-.064a.371.371,0,0,0-.209-.427l-.213-.215c-.009-.133-.065-.219-.212-.213-.005-.139-.056-.231-.216-.21a.326.326,0,0,0-.206-.432c-.008-.133-.068-.216-.212-.214,0-.139-.057-.229-.215-.211a.33.33,0,0,0-.2-.434.458.458,0,0,0-.391-.454.415.415,0,0,0-.238-.405.552.552,0,0,0-.366-.472l-.265-.387a1.578,1.578,0,0,0-.63-.86,6.79,6.79,0,0,0-1.637-2.068,5.439,5.439,0,0,0,1.5,2.178,1.307,1.307,0,0,0,.656.836l.273.381a.5.5,0,0,0,.4.45.435.435,0,0,0,.256.391c.042.236.143.417.414.436a.367.367,0,0,0,.237.4.206.206,0,0,0,.212.215c.007.137.065.22.215.211a.353.353,0,0,0,.216.421l.212.215C121.909,391.7,121.966,391.783,122.114,391.774Zm2.342-.427c.017.127.069.218.215.215a.391.391,0,0,0,.21.424l.215.215a.448.448,0,0,0,.209.425.364.364,0,0,0,.041.087c.01.014.039.013.061.018l-.113-.094a.435.435,0,0,0-.21-.424l-.216-.214a.418.418,0,0,0-.211-.424l-.215-.214a.373.373,0,0,0-.023-.1c-.009-.016-.043-.019-.066-.028l.1.112Zm-3.624.006c.011.082-.034.232.14.116l-.143-.113c-.007-.134-.067-.215-.21-.216,0-.138-.06-.225-.214-.212a.339.339,0,0,0-.209-.431L120,390.27l-.2-.228-.194-.238a.407.407,0,0,0-.248-.381.744.744,0,0,0-.6-.623.731.731,0,0,0,.514.692l.265.389.206.22.2.227.232.195a.339.339,0,0,0,.23.408.2.2,0,0,0,.212.214c.007.137.067.219.215.209Zm1.063-1.063c.009.136.062.224.216.21a.339.339,0,0,0,.215.423c.036.05,0,.248.148.078l-.163-.062a.341.341,0,0,0-.206-.432c-.01-.131-.067-.216-.211-.215-.022-.076.025-.247-.151-.109Zm-.437-.627c.023.079-.009.238.157.106l-.139-.122c-.013-.131-.071-.215-.217-.21-.016-.082.031-.247-.15-.116l.146.121A.2.2,0,0,0,121.459,389.663Zm1.719-.229c.02.068-.041.234.135.112l-.146-.1c-.007-.135-.055-.229-.214-.211.037-.195.006-.357-.207-.432-.007-.136-.061-.224-.214-.211.039-.2,0-.355-.21-.429-.006-.135-.061-.221-.211-.215a.321.321,0,0,0-.213-.425c-.005-.135-.063-.219-.211-.215a.351.351,0,0,0-.2-.444l-.179-.247a27.575,27.575,0,0,0-2.91-4.518,3.042,3.042,0,0,0-1.095-1.564,3.273,3.273,0,0,0,.917,1.714,32.363,32.363,0,0,0,3,4.453l.194.231c.018.172.058.33.255.383.007.134.066.217.213.212a.333.333,0,0,0,.214.425c.009.133.067.217.213.213a.353.353,0,0,0,.216.422c.008.133.065.219.212.214a.359.359,0,0,0,.217.421c.014.13.066.22.214.212Zm-1.076-.2c.019.081-.014.238.153.106l-.141-.118c-.011-.133-.069-.219-.218-.209a.342.342,0,0,0-.206-.431.8.8,0,0,0-.422-.645c-.027-.186-.1-.336-.3-.373-.017,0-.063.051-.063.078a.352.352,0,0,0,.314.355c.023.3.1.554.451.605a.353.353,0,0,0,.229.411A.2.2,0,0,0,122.1,389.234Zm-5.828-2.051.2.221q.135.186.27.371l.195.228a.776.776,0,0,0,.678.592,1.029,1.029,0,0,0-.536-.731l-.2-.225-.267-.376-.185-.239-.235-.1c.024.085.049.171.075.255Zm-9.5,10.357.213.209a.415.415,0,0,0,.431.21l.209.214a.411.411,0,0,0,.431.209.309.309,0,0,0,.033.078c.011.013.041.01.061.015l-.092-.1a.4.4,0,0,0-.42-.22l-.215-.208a.409.409,0,0,0-.422-.22l-.211-.211a.421.421,0,0,0-.43-.211c-.077-.055-.154-.111-.234-.162,0,0-.038.051-.059.078l.283.1a.412.412,0,0,0,.42.219Zm20.876-10.449a.4.4,0,0,0,.033.093c.01.014.039.016.06.024l-.105-.106c-.021-.167,0-.353-.21-.429-.019-.168-.012-.349-.213-.426a.821.821,0,0,0-.45-.809c.13.318.14.646.464.8.009.172.025.342.213.426a.451.451,0,0,0,.209.429Zm-2.779-.624c-.038-.048.032-.258-.145-.1l.161.08c-.018.186-.013.362.211.429a.366.366,0,0,0,.212.422c.039.042-.032.241.137.1l-.152-.08c.008-.18.016-.361-.212-.424A.377.377,0,0,0,124.869,386.467Zm-9.927,7.8-.217-.218A4.208,4.208,0,0,0,113,392.521a4.233,4.233,0,0,0,1.63,1.633l.219.2c.062.132.2.255.291.137.115-.149-.087-.181-.2-.224Zm8.664-8.457c-.038-.064.007-.264-.168-.1l.146.122c-.01.184.019.347.226.415.032.064-.019.259.155.1l-.154-.1A.359.359,0,0,0,123.607,385.812Zm4.471-1.066.055.274.1-.074-.171-.187c-.014-.095-.029-.189-.044-.284l-.107.057Zm-25.052,13.548c-.137-.089-.258-.267-.443-.076l.295.247c.131.111.266.183.422.043C103.209,398.436,103.117,398.364,103.025,398.294Zm26.329-14.185c.069.068-.1.283.148.242l-.16-.232-.046-.275-.1.053.158.211ZM108.7,399.657l.212.214a.4.4,0,0,0,.424.215l.214.212a.4.4,0,0,0,.427.211l.091.093c-.005-.02,0-.046-.017-.056a.311.311,0,0,0-.076-.034.4.4,0,0,0-.423-.215l-.213-.213a.4.4,0,0,0-.427-.211l-.213-.212-.232-.166c-.018.028-.036.057-.054.085Zm20.231-16.613q.019.14.039.281l.1-.051-.156-.22c-.019-.092-.039-.185-.058-.277l-.1.075Zm-1.063-.639.038.294.114-.059-.167-.222c-.006-.175.007-.359-.214-.424q-.021-.15-.043-.3l-.117.067.176.219C127.652,382.157,127.634,382.343,127.866,382.4Zm1.276-.638c.017.093.031.187.047.28l.1-.067c-.056-.067-.11-.134-.165-.2l-.044-.292-.109.058Zm-8.051-.463-.163-.257c-.085-.281-.127-.6-.5-.714-.108.418.13.636.343.864l.176.246.223.412a7.671,7.671,0,0,0,1.342,2.285l.185.241a1.01,1.01,0,0,0,.459.818l.145.136-.1-.183a.982.982,0,0,0-.439-.842l-.175-.252a7.815,7.815,0,0,0-1.267-2.339l-.234-.415Zm-2.4,8.785.2.22c.049.238.151.422.434.419.015.089-.008.232.155.107l-.139-.123a.48.48,0,0,0-.394-.457l-.211-.217a.386.386,0,0,0-.234-.4c-.165-.355-.3-.747-.821-.785a1.2,1.2,0,0,0,.73.856Zm5.113-1.068c-.012-.13-.063-.222-.214-.213a.357.357,0,0,0-.209-.429c-.008-.134-.06-.224-.213-.213.028-.191,0-.352-.212-.426-.032-.064.021-.263-.155-.1l.161.093a.351.351,0,0,0,.212.426c.009.134.062.223.215.212a.347.347,0,0,0,.214.423c.011.132.059.227.215.212l.043.283.117-.057Zm1.915-1.062c-.04-.037.032-.236-.135-.1l.15.08q.022.138.043.277l.11-.057-.167-.2Zm-.852,0c-.036-.047.033-.248-.141-.1l.157.081.045.278.112-.062Zm-.85,0c-.011-.13-.061-.223-.213-.213.021-.188-.005-.351-.212-.425-.033-.058.032-.261-.149-.1l.161.088a.347.347,0,0,0,.21.427c.012.132.057.228.215.211.014.1.027.193.041.289l.12-.057Zm2.98-.636a.427.427,0,0,0-.033-.1c-.01-.016-.043-.017-.065-.024l.11.11c.058.079-.1.288.149.252l-.161-.239Zm-1.066-.425c-.038-.04.04-.227-.128-.1l.144.087c0,.176.011.347.21.423.041.035-.036.221.127.1l-.142-.084C126.144,387.141,126.136,386.969,125.933,386.894Zm-1.7,0c-.036-.053.035-.261-.147-.1l.161.087c-.024.188,0,.352.211.425.034.05-.039.246.139.1l-.154-.087C124.457,387.134,124.439,386.966,124.232,386.892Zm-14.557,7.531.236.191c.236.219.407.559.852.494a1.13,1.13,0,0,0-.7-.643l-.235-.193c-.134-.127-.29-.425-.45-.232C109.194,394.255,109.511,394.334,109.674,394.423Zm-1.348.916-.381-.266c-.17-.218-.33-.461-.674-.287.058.307.3.378.526.457l.382.267c.125.106.288.328.415.155C108.742,395.46,108.479,395.4,108.326,395.339Zm12.347-6.795a.459.459,0,0,0-.245-.4c-.032-.183-.1-.334-.306-.373-.021,0-.073.042-.075.066a.368.368,0,0,0,.288.381c.089.128.177.256.266.385a.378.378,0,0,0,.3.369c.021,0,.074-.042.074-.065A.36.36,0,0,0,120.673,388.544ZM109.3,395.233c.089.129.256.2.335.087.108-.161-.119-.169-.205-.241a.7.7,0,0,0-.468-.372l-.376-.272c-.172-.209-.392-.548-.632-.25-.13.161.256.337.485.418l.378.271a.687.687,0,0,0,.484.358Zm3.258-.928-.361-.292a2.639,2.639,0,0,0-1.255-1.055,1.371,1.371,0,0,0-1-.752,1.3,1.3,0,0,0,.847.891,3.885,3.885,0,0,0,1.286,1.061l.371.285a.394.394,0,0,0,.473.28c.03-.006.08-.047.077-.06-.063-.22-.246-.3-.441-.358Zm10.406-8.06c-.007-.133-.062-.221-.211-.214a.865.865,0,0,0-.412-.862,1.094,1.094,0,0,0-.614-.856,1.006,1.006,0,0,0,.538.917.964.964,0,0,0,.483.807c.009.134.063.221.213.213-.023.25-.023.489.313.571C123.354,386.515,123.174,386.372,122.961,386.245Zm-18.622,8.622c-.127-.2-.3-.469-.509-.2-.134.171.161.3.346.364.188.167.457.517.627.258.188-.286-.226-.353-.463-.42Zm19.689-9.9c-.023-.052-.047-.1-.07-.156l-.081.088.138.081a.828.828,0,0,0,.436.841c.035.059-.028.264.152.1l-.158-.094A.845.845,0,0,0,124.029,384.964Zm3.2-2.133c.013.1.027.2.041.3l.117-.066-.175-.218a.764.764,0,0,0-.346-.774A.627.627,0,0,0,127.227,382.831Zm-4.559-5.672.217.427c.827,2.148,1.93,4.157,2.956,6.206l.243-.118q-1.513-3.118-3.026-6.236l-.216-.428a1.5,1.5,0,0,0-.579-1.017,1.915,1.915,0,0,0,.4,1.166Zm-11.178,17.359-.364-.29a4.342,4.342,0,0,0-1.992-1.442,5.715,5.715,0,0,0,1.872,1.586l.378.277c.122.189.2.431.475.443.035,0,.11-.091.1-.134-.029-.278-.245-.37-.474-.442Zm7.3-14.975q.143.29.287.578a13.861,13.861,0,0,0,1.864,3.015,1.55,1.55,0,0,0,.722,1.027,1.8,1.8,0,0,0-.582-1.138,13.411,13.411,0,0,0-1.821-3.057l-.282-.585c-.132-.32-.195-.7-.65-.831A.968.968,0,0,0,118.786,379.542ZM117.714,390l-.2-.1c.032.066.063.134.1.2a1.539,1.539,0,0,0,.814.89l.185.106q-.048-.1-.1-.19a1.542,1.542,0,0,0-.8-.9Zm5.271-6.978-.164-.135.079.221a2.046,2.046,0,0,0,.688,1.232l.141.139-.1-.177A1.956,1.956,0,0,0,122.985,383.026Zm-15.822,12.851c.116.126.235.236.406.081l-.265-.245a2.656,2.656,0,0,0-1.265-.844c-.118-.17-.294-.441-.467-.231-.2.238.141.3.306.389A3.993,3.993,0,0,0,107.163,395.877Zm12.69-16.336c.088.209.144.637.364.507.3-.176-.045-.45-.181-.662a2.265,2.265,0,0,0-.936-1.323A2.536,2.536,0,0,0,119.853,379.541Zm4.6,4.574c-.022-.052-.045-.1-.066-.158l-.078.089.139.075a1.879,1.879,0,0,0,.755,1.39A2.728,2.728,0,0,0,124.452,384.115Zm2.562-.008.038.293.115-.058-.169-.221a2.827,2.827,0,0,0-.848-1.7l-.082-.348c-.027.018-.073.031-.078.054a.223.223,0,0,0,.166.289,2.7,2.7,0,0,0,.859,1.694Zm-5.183,1.977c.07.212.034.5.389.525.082-.3-.116-.445-.306-.591a2.782,2.782,0,0,0-.971-1.4A2.484,2.484,0,0,0,121.831,386.085Zm-6.41,4.085.218.092-.093-.217a2.045,2.045,0,0,0-1.279-1.154A3.038,3.038,0,0,0,115.42,390.17Zm2.321-2.558a1.763,1.763,0,0,0,.962,1.056,2.221,2.221,0,0,0-.814-1.178,3.908,3.908,0,0,0-1.414-1.615A4.273,4.273,0,0,0,117.742,387.612Zm-5.951,4.926a2.645,2.645,0,0,0-1.521-1.213,3.163,3.163,0,0,0,1.377,1.339,5.11,5.11,0,0,0,1.491,1.28l.211.094-.094-.213a3.335,3.335,0,0,0-1.464-1.286Zm6.154-7.884-.228-.088c.027.081.052.163.078.244a7.209,7.209,0,0,0,1.443,1.944c.14.3.192.675.677.749a1.17,1.17,0,0,0-.541-.858A6.536,6.536,0,0,0,117.944,384.653Zm.883-3.624a1.4,1.4,0,0,0-.749-1.011,1.628,1.628,0,0,0,.566,1.172,13.6,13.6,0,0,0,2.082,3.057A13.871,13.871,0,0,0,118.828,381.03Zm1.546,5.886c.041.178.109.335.317.365.019,0,.066-.048.067-.075.008-.2-.129-.308-.286-.4a13.72,13.72,0,0,0-2.307-3.291A13.53,13.53,0,0,0,120.374,386.916Zm-.053-8.867c-.061-.18-.11-.527-.294-.427-.278.152-.029.4.1.588a26.964,26.964,0,0,0,2.527,4.367A26.489,26.489,0,0,0,120.321,378.049Zm-7.434,9.22a4.185,4.185,0,0,0-1.758-1.873,3.734,3.734,0,0,0,1.758,1.873Zm-2.019,3.307a3.076,3.076,0,0,0,1.6,1.509,2.954,2.954,0,0,0-1.6-1.509Zm5.836-7.547a1.717,1.717,0,0,0-1.033-1.36A1.864,1.864,0,0,0,116.7,383.029Zm-6.953,7.75c-.436-.607-.666-1.061-1.481-1.083A2.494,2.494,0,0,0,109.75,390.779Zm4.393-5.039a2.1,2.1,0,0,0-1.3-1.32A2.094,2.094,0,0,0,114.143,385.74Zm3.182,3.848a1.654,1.654,0,0,0-1-1.092A1.527,1.527,0,0,0,117.325,389.588Zm-3.362-2.443c-.319-.886-.319-.886-1.032-1.028A1.885,1.885,0,0,0,113.963,387.145Zm1.452.3a1.45,1.45,0,0,0,.992,1.009A1.457,1.457,0,0,0,115.415,387.444Zm-1.422-3.239c-.252-.7-.252-.7-.864-.891A1.383,1.383,0,0,0,113.993,384.205Zm-5.581,6.718a1.127,1.127,0,0,0,.988.867A1.106,1.106,0,0,0,108.411,390.923Zm-1.515-.075a1.155,1.155,0,0,0,1,.932C107.766,391.254,107.462,391.068,106.9,390.848Zm-4.061,5.363c-.271-.431-.518-.652-1.016-.516A1.04,1.04,0,0,0,102.836,396.212Zm12.77-11.428c.184-.354-.051-.508-.3-.644-.034-.019-.109.037-.175.063C115.109,384.536,115.3,384.7,115.606,384.783Zm-.814,1.861c-.273-.659-.357-.735-.545-.5C114.324,386.418,114.428,386.664,114.792,386.645Zm-8.044,9.736c-.266-.24-.441-.512-.951-.413C106.082,396.282,106.244,396.58,106.747,396.381Zm-.59-3.589a.551.551,0,0,0-.548-.56c-.034,0-.122.095-.114.132C105.555,392.672,105.749,392.815,106.158,392.792Zm8.79-7.547c-.2-.389-.18-.74-.707-.629C114.3,384.945,114.445,385.146,114.948,385.245ZM104.008,396.9c-.2-.417-.486-.521-1.01-.635A.994.994,0,0,0,104.008,396.9Zm11.864-13.377c.04-.44-.1-.641-.527-.7C115.32,383.19,115.447,383.4,115.873,383.522Zm-.8,2.073c.073.366.182.589.633.65C115.639,385.88,115.535,385.652,115.078,385.6Zm-8.434,6.448c.261.325.358.659.789.476C107.353,392.194,107.186,392.011,106.644,392.044Zm-.312.844a.547.547,0,0,0,.667.531A.547.547,0,0,0,106.331,392.889ZM128.355,379.7c-.063.354-.007.567.309.678A.8.8,0,0,0,128.355,379.7Zm-1.492.414a.636.636,0,0,0,.281.752A.643.643,0,0,0,126.864,380.115Zm1.122.733a.546.546,0,0,0-.269-.68A.536.536,0,0,0,127.985,380.848Zm.1.25c.021.44.079.649.316.788C128.531,381.6,128.348,381.426,128.089,381.1Zm-11.266,2.377a.41.41,0,0,0,.328.352c.009,0,.11-.188.082-.249a.588.588,0,0,0-.261-.283C116.882,383.254,116.79,383.347,116.823,383.475Zm-.289,1.136a.38.38,0,0,0,.328.346c.022,0,.117-.187.089-.244a.625.625,0,0,0-.273-.286C116.591,384.388,116.5,384.481,116.534,384.611Zm-8.527,8.252c-.1.04-.217.091-.123.208a.9.9,0,0,0,.319.227.123.123,0,0,0,.183-.141A.4.4,0,0,0,108.007,392.863Zm-1.522,1.13a.451.451,0,0,0-.4-.259c-.1.007-.222.082-.125.2a.9.9,0,0,0,.327.225C106.4,394.213,106.464,394.131,106.485,393.993Zm.979-.449c-.169-.064-.264-.007-.25.1a.367.367,0,0,0,.181.213.124.124,0,0,0,.2-.118C107.588,393.659,107.494,393.585,107.464,393.544Zm1.49,0c-.161-.061-.254-.009-.24.1a.36.36,0,0,0,.176.207.119.119,0,0,0,.192-.113C109.074,393.657,108.984,393.586,108.954,393.546Zm8.233-13.387c-.013-.2-.11-.287-.251-.282-.039,0-.115.152-.1.214a.314.314,0,0,0,.187.182C117.067,380.287,117.145,380.191,117.187,380.158Zm5.428,9.707c-.03-.056-.047-.128-.092-.158-.028-.019-.1.027-.151.044.026.057.039.132.083.163.028.019.1-.03.16-.05Zm-4.586-6.786a.857.857,0,0,0-.179-.195c-.143-.086-.184.054-.171.136a.37.37,0,0,0,.158.226C117.976,383.333,117.988,383.2,118.029,383.08Zm-1.87,2.531c.141-.033.211-.1.15-.207a.362.362,0,0,0-.2-.181.12.12,0,0,0-.12.19,1.054,1.054,0,0,0,.174.2Zm6.225,1.509.223.165c.019-.057.071-.136.051-.166a1.133,1.133,0,0,0-.205-.193C122.432,386.983,122.413,387.039,122.385,387.119Zm-13.7,5.094a1.021,1.021,0,0,0-.2-.177.122.122,0,0,0-.194.121.371.371,0,0,0,.18.211C108.588,392.436,108.65,392.354,108.685,392.213Zm-3.393,2.119a1.081,1.081,0,0,0-.2-.173c-.112-.057-.215.011-.2.121a.36.36,0,0,0,.184.211C105.176,394.549,105.253,394.482,105.292,394.332Zm0-.857a1,1,0,0,0,.2.176c.11.056.216-.011.2-.122-.01-.079-.106-.166-.185-.212C105.4,393.253,105.33,393.327,105.29,393.474Zm10.847-9.782c-.148.035-.219.105-.157.216a.365.365,0,0,0,.21.185.125.125,0,0,0,.123-.2,1.036,1.036,0,0,0-.177-.2Zm-11.263,13.922.15-.08a1.018,1.018,0,0,0-.164-.207c-.023-.018-.1.037-.159.058Zm8.865-3.086.2-.071a1.423,1.423,0,0,0-.191-.223c-.024-.019-.105.033-.16.053l.147.241ZM104.08,397.8a.891.891,0,0,0-.284-.079c-.085.005-.216.07-.074.178a.492.492,0,0,0,.272.055C104.019,397.958,104.045,397.872,104.08,397.8Zm24.8-16.831c-.024-.057-.049-.116-.073-.176-.022.026-.066.055-.062.076a1.059,1.059,0,0,0,.066.18l.069-.08Zm.845.2c-.019-.055-.039-.112-.059-.168-.021.023-.064.049-.061.069a.96.96,0,0,0,.053.172ZM99.463,401.5c-.037-.04-.07-.105-.11-.11a.427.427,0,0,0-.168.053c.035.038.066.1.106.109s.109-.031.171-.052Zm30.6-19.367c-.008.031-.029.064-.023.093.023.116.065.12.1.01a.142.142,0,0,0-.018-.1C130.117,382.135,130.082,382.14,130.06,382.137Zm.221.611c-.008.028-.028.058-.023.084.016.106.055.112.094.013a.128.128,0,0,0-.014-.087C130.334,382.749,130.3,382.752,130.281,382.749Zm-24.639,14a.555.555,0,0,0-.18-.079c-.027,0-.059.08-.089.124a.509.509,0,0,0,.173.079C105.574,396.878,105.608,396.8,105.642,396.752Zm24.048-13.78c-.022.007-.056.008-.063.022a.135.135,0,0,0-.013.095c.038.087.082.078.1-.025C129.722,383.036,129.7,383,129.69,382.972Zm-25.334,14.007-.149.076c.033.055.056.126.1.159.022.015.094-.042.145-.067Zm24.094-13.343-.055-.074a.916.916,0,0,0-.061.157c0,.02.032.049.05.074l.066-.157Zm1.407,1.671c-.008.026-.025.053-.022.077.014.1.049.1.087.013a.113.113,0,0,0-.012-.081C129.906,385.308,129.877,385.31,129.858,385.307Zm-26.547,12.346c.026-.055.08-.12.065-.154s-.095-.064-.146-.095c-.024.051-.079.115-.064.15S103.259,397.621,103.311,397.653Zm23.422-10.873-.057-.043-.007.075Zm-1.053-5.533-.052-.075c-.021.022-.057.043-.058.066s.03.05.047.075Zm1.639.061c.02-.02.053-.04.054-.062s-.027-.046-.043-.07c-.02.02-.052.04-.054.062S127.3,381.285,127.319,381.308Zm-1.483.292c-.021.022-.056.043-.058.066s.03.05.047.075c.021-.022.056-.043.058-.067S125.853,381.624,125.836,381.6Zm.9.076-.051-.073c-.02.021-.054.042-.056.065s.029.048.046.072Zm3.181,0-.053-.045-.009.076Zm-1.316.577-.039.077.061.006Zm.806.266.051.042.008-.073Zm-1.284.639.059.046.008-.08Zm-3.992.357c-.021.022-.057.044-.059.067s.032.05.049.075c.021-.022.057-.044.059-.067S124.154,383.539,124.136,383.514Zm3.355.064.059.048.01-.082Zm.264.374-.04.078.064.006Zm-.421.847-.038.076.062.006Zm2.339.013-.033.061.048.006Zm-2.128.416-.038.075.061.006Zm.25.489-.054-.043-.008.074Zm-2.38.152c-.02.018-.055.035-.057.056s.027.045.043.068c.019-.02.052-.039.054-.06S125.427,385.887,125.415,385.869Zm.847,0-.04.078.064.006Zm1.7.321.036-.067-.055-.007Zm-2.285.161-.062-.046-.007.081Zm.794.059.04-.075-.063-.006Zm-10.451.1c-.026.023-.071.046-.072.07s.041.052.063.079c.025-.024.07-.046.073-.07S116.037,386.542,116.014,386.515Zm12.123.046.047.039.008-.066Zm.245.478.033-.061-.05-.007Zm.184.374.043.037.009-.061Zm-.571.229-.043-.038-.009.06Zm-1.569.2.056.043.007-.074Zm1.782.223-.043-.037-.009.059Zm-1.478.2-.053-.041-.007.07Zm.136.408.046.039.01-.061Zm-3.365,1.229-.041.076.067.006Zm.668.93-.058-.045-.01.072Zm-18.7,4.843c-.021-.022-.041-.06-.062-.061s-.044.035-.065.055l.1.063.032-.056Z" transform="translate(-0.099 0)" fill="#fec75e" fill-rule="evenodd"/>
    <path id="Path_417" data-name="Path 417" d="M211.71,431.042c0-4.681.018-9.363-.019-14.044-.006-.794.2-1.037,1.009-1.008,1.771.062,3.547.067,5.318,0,.836-.032.994.263.989,1.027-.031,4.716-.017,9.433-.015,14.15,0,1.162-.006,1.135,1.046.682,5.5-2.368,10.734-1.86,15.353,1.965a13.635,13.635,0,0,1,4.746,14.812c-1.519,5.809-5.476,9.357-11.34,10.528-8.857,1.77-17.007-5.148-17.08-14.385C211.68,440.192,211.71,435.616,211.71,431.042ZM233.4,444.9a7.2,7.2,0,0,0-14.4.008,7.2,7.2,0,1,0,14.4-.008Zm-89.678-13.516c0-4.787.024-9.573-.022-14.359-.008-.866.258-1.062,1.069-1.036,1.771.058,3.546.049,5.318,0,.7-.018.893.192.888.888-.028,4.786,0,9.573-.026,14.36,0,.819.015,1.143.99.679a14.462,14.462,0,1,1-8.038,15.2,56.067,56.067,0,0,1-.17-7.221c-.041-2.836-.009-5.673-.009-8.51Zm7.24,13.522a7.232,7.232,0,1,0,14.463.044,7.232,7.232,0,0,0-14.463-.044Zm48.43,12.613a16.3,16.3,0,0,1-5.535,1.767,14.394,14.394,0,0,1-16.086-14c-.066-4.647,0-9.3-.033-13.943-.005-.7.209-.9.9-.888,1.808.043,3.619.05,5.427,0,.76-.022.946.23.942.962q-.047,6.705-.009,13.411a7.094,7.094,0,0,0,6.076,7.215c4.51.75,8.345-2.661,8.377-7.5.028-4.329.033-8.657-.016-12.985-.01-.9.247-1.138,1.123-1.1,1.736.07,3.477.044,5.214.009.647-.013.937.106.935.858-.027,9.437.059,18.876-.047,28.312a14.451,14.451,0,0,1-13.563,14.22c-.612.043-.906-.059-.89-.77.042-1.915.026-3.831.006-5.747,0-.47.132-.653.624-.762C197.732,465.5,199.772,462.712,199.392,457.521Zm-78.026-13.176c.127-.253.361-.2.576-.2l.427.268c.147.114.3.385.48.14.115-.157-.151-.252-.28-.345l-.339-.31c.287-.365.551-.059.824.027.187.013.393.316.543.046.093-.166-.179-.254-.3-.368.032-.335.276-.321.516-.314.123.1.26.224.4.08.041-.042-.045-.21-.073-.321l.512-.413a8.292,8.292,0,0,0,2.424,1.549l.151-.258-2.035-1.279c.078-.214.276-.2.446-.232l.754.313a1.236,1.236,0,0,0,1.266.369l-1.055-.592-.764-.511c.1-.2.288-.209.47-.239.678.177,1.165.851,2.077.817a6.423,6.423,0,0,0-1.68-1.063c0-.267.16-.344.389-.352l.342.124.425.22.395.209c.485.228.885.69,1.645.589a4,4,0,0,0-1.419-.831c-.141-.072-.28-.146-.42-.219l-.426-.213-.294-.179c.019-.258.187-.34.416-.352l.327.107.43.208.43.212.425.213c.372.179.686.573,1.219.361a1.815,1.815,0,0,0-1.033-.6l-.426-.209-.4-.2-.428-.211a.372.372,0,0,0-.111-.1.38.38,0,0,1,.223-.416l.408.019-.013-.009c.284.334.594.6,1.081.431l-.015-.008c.024.317.163.406.439.221l-.013-.007c.023.318.189.354.438.22l-.013-.007c.024.315.2.335.438.22l-.012-.006c.33.706,1.46.467,1.7,1.374-.535.137-.863-.482-1.381-.2.347.746,1.492.519,1.735,1.481-.8-.038-1.361-.72-2.267-.742.7,1.007,2.054.88,2.618,2.02-.885-.088-1.442-.756-2.353-.827.578,1.092,2.049.9,2.524,2.153-1.369-.487-2.383-1.346-3.684-1.586,1.073,1.07,2.6,1.513,3.768,2.442l-.2.324-4.869-2.568c-.3-.269-.594-.558-1.082-.452.129.486.541.55.862.725,1.683,1.2,3.652,1.964,5.271,3.261l-.177.3-5.136-2.9c-.381-.231-.689-.663-1.277-.5a1.565,1.565,0,0,0,1.012.763c1.746,1.35,3.831,2.211,5.546,3.6l-.2.312-5.924-3.552a3.932,3.932,0,0,0-1.233-.707.993.993,0,0,0-.643-.422,1.133,1.133,0,0,0-.642-.42l-.5-.322c-.27-.219-.519-.5-.982-.379a1.409,1.409,0,0,0,.79.606l.491.336.649.414a1.181,1.181,0,0,0,.638.425,3.127,3.127,0,0,0,1.156.742c1.974,1.547,4.3,2.612,6.242,4.2l-.206.3-6.141-3.783a40.906,40.906,0,0,1-1.243-.831,1.183,1.183,0,0,0-.679-.436,1.063,1.063,0,0,0-.641-.424c-.153-.178-.389-.441-.557-.212-.192.264.166.351.366.446l.629.438.627.436.618.447.626.436c2.079,1.545,4.375,2.8,6.4,4.419l-.221.313q-3.384-2.2-6.769-4.392a4.528,4.528,0,0,0-1.343-.965c-.231-.179-.412-.491-.794-.317.011.37.288.453.541.559l1.35,1.013c2.107,1.488,4.217,2.971,6.317,4.469.232.166.74.32.495.666-.259.367-.545-.108-.767-.259-2.509-1.709-5-3.438-7.5-5.161a1.737,1.737,0,0,0-.864-.632c-.209-.213-.384-.513-.772-.333.04.375.321.462.566.586l.851.638,7.035,5.25a1.558,1.558,0,0,1,.341.248c.229.306.982.41.662.865-.235.336-.636-.225-.917-.429-2.228-1.615-4.439-3.255-6.658-4.884a3.564,3.564,0,0,0-.458-.249c-.273-.3-.517-.669-1.054-.525a1.694,1.694,0,0,0,.814.81l7.21,5.617c.14.109.287.208.426.318.163.13.4.273.248.506-.17.257-.365.051-.528-.073-.339-.257-.674-.519-1.013-.775q-3.049-2.3-6.1-4.6a1.679,1.679,0,0,0-1.115-.737c.1.6.54.766.869,1.025,2.405,2.146,5.1,3.96,7.444,6.175l-.243.288-8.016-6.329c-.361-.39-.672-.861-1.357-.9.206.633.7.867,1.1,1.2l7.914,6.792-.3.361-8.4-7.088c-.121.7.283.875.534,1.1q3.289,2.948,6.6,5.871c.186.165.376.326.557.5.153.144.353.306.14.525-.175.178-.317-.019-.446-.12s-.264-.236-.4-.354q-3.74-3.322-7.479-6.642c-.26-.231-.479-.527-.972-.467,2.757,2.942,5.816,5.583,8.552,8.562-3.567-2.894-6.862-6.094-10.436-9.347a1.371,1.371,0,0,0,.628,1.181q4.177,4.1,8.368,8.186c.178.174.356.348.529.526.13.133.238.282.047.442-.129.109-.261.055-.372-.051q-.27-.256-.537-.516-3.387-3.311-6.777-6.617c-.258-.25-.446-.648-.987-.62-.015.509.381.735.647,1.01,2.251,2.314,4.517,4.613,6.765,6.931.187.193.695.414.353.725-.305.28-.531-.206-.731-.409-1.921-1.943-3.823-3.9-5.744-5.845-.249-.252-.428-.669-.976-.578-.03.465.34.677.581.938,1.853,2.007,3.724,4,5.57,6.011.178.193.69.412.33.723-.328.283-.522-.222-.712-.425-2.478-2.637-4.939-5.289-7.412-7.93-.26-.278-.463-.637-.926-.757-.177.481.224.689.448.943q3.562,4.024,7.14,8.034c.164.186.329.372.487.564a.238.238,0,0,1-.017.369c-.137.115-.259.056-.364-.058-.192-.209-.385-.417-.573-.629q-3.075-3.462-6.151-6.92c-.239-.268-.433-.636-.918-.675-.084.477.261.676.47.924,2.036,2.412,4.087,4.811,6.113,7.233.189.225.761.5.35.816-.346.269-.557-.3-.764-.544-1.893-2.208-3.761-4.437-5.65-6.65-.241-.282-.414-.677-.882-.714-.235.448.171.639.367.884,1.862,2.325,3.742,4.637,5.6,6.963.15.188.572.416.228.679-.319.244-.468-.2-.625-.388-1.679-2.063-3.339-4.142-5.018-6.2-.271-.332-.481-.765-1.163-.693l5.907,7.714c-.67.339-.793-.235-1.005-.506-1.947-2.484-3.868-4.988-5.8-7.481-.224-.289-.4-.655-.834-.752-.167.482.207.687.4.945,1.8,2.461,3.617,4.911,5.427,7.366.147.2.289.4.434.6.089.123.145.258.026.379-.177.181-.318.054-.431-.091-.2-.252-.385-.51-.575-.766q-2.686-3.638-5.374-7.272a1.483,1.483,0,0,0-1.073-.787l6.445,9.23c-.656.289-.774-.25-.975-.532-1.6-2.253-3.184-4.523-4.781-6.78-.211-.3-.352-.691-.8-.8-.172.5.219.749.414,1.044,1.486,2.247,3,4.476,4.481,6.727.138.209.631.491.193.766-.3.185-.442-.264-.586-.479-1.271-1.879-2.522-3.773-3.8-5.65-.178-.263-.266-.675-.744-.661-.127.459.222.722.414,1.027,1.094,1.741,2.213,3.466,3.3,5.212.136.219.6.515.171.771-.3.178-.433-.273-.574-.491-1.4-2.175-2.788-4.361-4.192-6.534-.2-.314-.345-.7-.946-.735l4.74,7.821-.4.256-4.183-6.782-.348.2,3.661,6.385-.254.189a9.233,9.233,0,0,1-1.66-2.535c-.576-.907-1.1-1.844-1.652-2.768l-.353.2q1.331,2.458,2.663,4.916l-.337.219c-1.042-1.366-1.618-3.064-2.644-4.441l-.291.153L112.8,466.8l-.257.173c-1-.9-1.19-2.4-2.206-3.319a16.407,16.407,0,0,0,1.242,3.067c-.945.062-.713-1.11-1.384-1.223-.264.322.1.6.075.889-.444.158-.5-.172-.683-.366-.133-.143-.277-1.156-.618-.085-.018.054-.171.106-.25.092-.465-.081-.632-1.011-.75-.8-.431.776-.605.365-.838-.047-.207-.369-.37-.764-.553-1.147l-.2-.429c-.065-.142-.13-.285-.2-.427q-.141-.3-.285-.6c-.066-.147-.134-.294-.2-.442l-1.585-3.545-.266.124q.824,1.8,1.648,3.6l.2.428.263.607.179.455c.065.143.13.285.194.428l.262.8-.257.144c-1.143-1.518-1.507-3.478-2.673-5.012l1.712,4.212c-1.208-.749-1.192-2.235-2.152-3.154l.894,2.31c-1.018.444-.286-1.43-1.547-1.045-.522.16-.585-1.32-1.223-2.07.042.344.061.508.081.671l-.2.2a1.14,1.14,0,0,1-.493-.8,4.165,4.165,0,0,0-.653-1.376v.755c-.56-.243-.678-.778-.846-1.281s-.358-1.023-.553-1.528c-.037-.093-.075-.328-.23-.206-.092.073-.054.309-.075.472a12.454,12.454,0,0,1-2.137-5.436A18.3,18.3,0,0,1,99,437.72c.638.151,1.519.054,1.194,1.179.778.111,1.146.728,1.58,1.269.328.41.6.946,1.027,1.182a19.146,19.146,0,0,0,2.544,1.572c.635.231,1.086.826,1.771.991l-.173.2.114.068c.017-.091.034-.182.05-.273a5.1,5.1,0,0,0,2.057.681c.053.137.135.228.3.183l-.021-.013c0,.157.057.251.236.206-.029.17.021.263.213.212-.113.231.033.337.208.43l.213.215a.207.207,0,0,0,.209.215.2.2,0,0,0,.21.217.209.209,0,0,0,.2.23l.208.217a1.1,1.1,0,0,0,.579.685l.193.232.2.225.209.228c.07.071.139.144.207.216l.313.331.2.223.2.225a9.448,9.448,0,0,0,1.728,1.9l.227-.223-2.2-2.27-.335-.319-.207-.216-.209-.217-.208-.218-.21-.216a1,1,0,0,0-.633-.645l-.2-.235c-.044-.124-.107-.216-.261-.161.015-.166-.041-.253-.222-.2.029-.179-.019-.274-.22-.208.045-.187-.006-.277-.212-.211.134-.242-.039-.335-.207-.431l-.215-.215c-.01-.07-.02-.141-.03-.211a1.606,1.606,0,0,1,.9.208l.209.223-.016-.013a.655.655,0,0,0,.441.422,32.314,32.314,0,0,0,.416.437l.2.223.2.221a8.486,8.486,0,0,0,1.624,1.778l.206.228.209.22.211.22.212.223.215.221.175.18c.124.126.217.424.435.2.105-.106-.088-.28-.236-.362l-.206-.219-.213-.213-.212-.213-.213-.213-.206-.221-.214-.212a8.179,8.179,0,0,0-1.685-1.711l-.229-.214-.237-.189c-.014-.14-.068-.231-.232-.183.008-.173-.054-.257-.238-.187.119-.141-.007-.252-.046-.373.181-.365.426-.136.654-.069a.8.8,0,0,0,.462.435l.211.215.209.217.211.215.211.214.211.215.209.217.212.214.211.215.211.214.209.218.211.214.211.213.208.218.212.214.213.214.211.214c.07.073.137.146.205.22l.213.213c.086.148.259.345.371.234.22-.219-.074-.319-.207-.442l-.169-.168-.218-.219-.219-.213-.214-.212-.215-.213-.216-.214-.217-.212c-.071-.071-.143-.142-.215-.213l-.217-.213-.221-.212-.216-.213-.216-.213-.219-.213-.224-.21-.219-.211-.221-.21-.227-.206-.229-.2c-.041-.108-.08-.215-.12-.323a1.685,1.685,0,0,1,.923.2c.1.155.18.34.421.223l-.017-.013c-.113.161.022.226.118.306l.213.217.222.207.219.219a12.63,12.63,0,0,0,1.931,1.892l.214.213.224.206c.1.14.267.336.381.225.228-.22-.07-.317-.2-.441q-.093-.089-.184-.179l-.221-.214a12.081,12.081,0,0,0-2.012-1.841l-.214-.211-.221-.2-.22-.206a.3.3,0,0,0-.037-.171c.128-.289.4-.2.622-.235.032.252.214.369.418.467l.22.206.216.207.328.326.216.215.216.206.192.194a4.45,4.45,0,0,0,1.791,1.423,5,5,0,0,0-1.6-1.586l-.223-.2-.22-.205-.223-.2c-.109-.108-.219-.216-.329-.323-.072-.065-.143-.131-.214-.2l-.225-.208-.172-.3.745-.008c.069.18.167.31.389.22l-.014-.009c-.014.417.335.513.6.684l.226.2.345.33.173.174c.349.328.594.821,1.367.836a3.848,3.848,0,0,0-1.166-1l-.225-.2-.339-.319c-.068-.063-.134-.128-.2-.192l-.544-.551c.136-.244.378-.16.583-.19a3.482,3.482,0,0,0,1.059.906l.228.2a3.267,3.267,0,0,0,1.168.975c.112.153.238.4.433.161.093-.112-.1-.279-.26-.344a3.912,3.912,0,0,0-1.19-.983l-.188-.173-.653-.642a.581.581,0,0,1,.521-.3l.3.325.836.665.7.575.242.188c.077.109.168.218.3.084.028-.029-.05-.156-.078-.239l-.243-.227a1.69,1.69,0,0,0-.745-.553,1.772,1.772,0,0,0-.837-.655.343.343,0,0,0-.045-.167c.157-.252.416-.185.647-.209a1.433,1.433,0,0,0,.8.681,4.843,4.843,0,0,0,1.91,1.307,5.239,5.239,0,0,0-1.723-1.494l-.415-.426c.189-.394.43-.141.659-.054a.766.766,0,0,0,.193.045l.365.3.222.18.257.163c.156.152.34.492.535.25s-.194-.334-.358-.467l-.209-.171-.268-.168-.359-.283a.581.581,0,0,0-.112-.128c.164-.217.4-.146.618-.161l.3.143a3.91,3.91,0,0,0,1.852,1.12,4.45,4.45,0,0,0-1.678-1.309.376.376,0,0,0-.049-.16ZM109.246,445.6c-.026.168.022.262.213.212-.1.225.026.341.209.429l.212.215a.2.2,0,0,0,.2.224.2.2,0,0,0,.2.222.521.521,0,0,0,.377.463c.061.078.121.156.184.233s.139.151.21.223l.223.118c.063-.126-.018-.172-.116-.211l-.206-.219-.207-.218a.5.5,0,0,0-.423-.429c-.009-.135-.064-.223-.217-.213-.018-.148-.062-.259-.246-.175.043-.184,0-.279-.213-.214.131-.241-.034-.337-.208-.43a.209.209,0,0,0-.214-.214.192.192,0,0,0-.213-.213l-.075-.156-.07.1.162.038c-.015.159.035.25.214.212Zm2.646,8.644c.056.069.112.137.169.206.086.145.2.4.345.305.268-.183-.014-.329-.136-.469l-.171-.254-.169-.232-.3-.36a4.877,4.877,0,0,0-.988-1.339l-.3-.349c-.114-.163-.229-.326-.344-.488-.1-.117-.2-.234-.307-.351-.116-.161-.232-.322-.35-.482l-.3-.357c-.054-.226-.14-.422-.417-.435l-.058-.18-.111.087.147.113a.531.531,0,0,0,.33.487c.1.127.192.254.29.381a.713.713,0,0,0,.328.5l.3.362q.165.252.332.5l.3.353a4.951,4.951,0,0,0,.966,1.369l.283.364c.056.089.112.179.168.267Zm-5.627-2.681c.012.062.024.124.036.186l.1-.081-.155-.09-.055-.182-.091.1Zm1.855-1.22c.035.083.077.221.18.13s-.008-.164-.109-.2c-.014-.128-.057-.228-.212-.217-.024-.058-.047-.117-.07-.175l-.1.093.147.112Q108.035,450.22,108.12,450.347Zm-1.221-.479c0,.144.027.259.214.211a.3.3,0,0,0,.209.43c0,.137.034.244.206.22a.32.32,0,0,0,.218.421.426.426,0,0,0,.245.4c.029.014.133-.046.13-.058-.039-.2-.107-.381-.369-.348a.3.3,0,0,0-.216-.425c-.006-.138-.043-.246-.217-.207a.31.31,0,0,0-.214-.425c0-.138-.051-.235-.215-.212-.013-.06-.028-.12-.042-.18l-.1.081.152.09Zm5.847-.072c.091.071.184.208.286.031.017-.029-.093-.131-.143-.2l-.2-.225a2.427,2.427,0,0,0-.794-.9l-.2-.231c-.084-.066-.153-.237-.274-.059-.016.023.091.128.142.195l.2.223a2.531,2.531,0,0,0,.772.933c.073.079.145.157.219.233Zm-5.211-.352.049.188.108-.088-.16-.1c0-.145-.04-.251-.22-.205a.309.309,0,0,0-.21-.427c-.029-.052-.06-.1-.09-.157-.018.041-.037.081-.055.121l.163.014a.3.3,0,0,0,.207.433c0,.137.045.236.209.217Zm2.716-.165.206.238a.373.373,0,0,0,.257.368l.194.23a.728.728,0,0,0,.36.492c.08.071.144.242.271.068.016-.021-.088-.131-.137-.2a.715.715,0,0,0-.375-.469l-.212-.24c-.056-.148-.116-.292-.3-.326l-.2-.223c-.011-.128-.067-.213-.207-.219-.021-.137-.061-.249-.238-.186-.006-.059-.013-.119-.019-.178l-.121.061.142.114a.2.2,0,0,0,.2.229c.059.081.118.162.18.243Zm-3.772-.056c.01.059.021.119.032.178l.1-.074-.15-.087c0-.145-.041-.242-.213-.211a.326.326,0,0,0-.21-.426l-.077-.16-.063.106.157.034a.325.325,0,0,0,.209.429c.006.138.049.238.216.21Zm1.692-.2.042.188.113-.082-.155-.106c0-.142-.051-.237-.217-.209-.012-.06-.023-.12-.035-.179l-.107.075.15.1C107.961,448.946,108.005,449.043,108.172,449.02Zm1.289-.862c0,.06.006.12.009.179l.12-.055-.147-.108c-.03-.052-.061-.1-.092-.155l-.055.124Zm-1.915,0c0,.059.009.117.013.175l.11-.058-.143-.1-.081-.16c-.021.037-.042.075-.062.113Zm2.473-.356.219.238a.368.368,0,0,0,.263.357l.2.228a1.4,1.4,0,0,0,.56.713l.192.225.311.339a2.581,2.581,0,0,0,.774.958c.095.073.192.218.3.034.019-.034-.09-.143-.14-.217a2.622,2.622,0,0,0-.769-.917l-.322-.336-.2-.221a1.355,1.355,0,0,0-.582-.687l-.212-.239-.3-.325-.206-.218-.2-.221c-.013-.129-.073-.211-.211-.216-.018-.137-.069-.233-.234-.191.01-.162-.024-.274-.224-.2.115-.232-.024-.343-.208-.432a.209.209,0,0,0-.214-.215c-.029-.05-.06-.1-.09-.151l-.057.118.163.019c-.023.166.02.265.214.211-.115.232.019.344.208.431a.2.2,0,0,0,.207.219.194.194,0,0,0,.2.228c.061.08.121.159.182.238s.127.154.192.229Zm-2.052-.279c-.013.156.021.264.214.211-.092.223.008.352.209.433.043.235.128.429.412.438l.05.185.114-.084-.153-.112c-.061-.231-.1-.483-.443-.411.1-.222-.019-.343-.2-.43-.009-.134-.069-.215-.213-.214-.025-.055-.049-.111-.074-.166l-.075.1.164.047Zm.094,16.134c.084.033.208.118.243.09.133-.107.056-.236-.02-.351l-.208-.423-.213-.426-.209-.427a53.187,53.187,0,0,0-3.32-6.283c.021-.188.012-.36-.215-.422q-.033-.091-.066-.182l-.082.113.165.051c-.04.2-.073.39.208.432a65.457,65.457,0,0,0,3.062,6.5l.205.437c.07.144.139.289.209.432S107.982,463.5,108.061,463.656Zm-1.515-1.107.2.408q.231.528.463,1.057a1.713,1.713,0,0,0,.78,1.154,3.42,3.42,0,0,0-.527-1.381l-.49-1-.21-.434-.2-.433a3.815,3.815,0,0,0-1.242-1.933l1.026,2.123C106.411,462.259,106.478,462.405,106.547,462.55Zm1.112-1.747c.067.149.119.431.294.341.271-.142,0-.342-.066-.514l-.222-.428c-.068-.138-.151-.391-.286-.312-.224.131-.039.331.067.487Q107.552,460.589,107.659,460.8Zm-5.014-1.357.049.381c.046-.025.128-.044.132-.075a.241.241,0,0,0-.192-.3c.009-.183.058-.386-.217-.422-.016-.122-.031-.244-.046-.366-.044.023-.12.042-.124.07a.234.234,0,0,0,.188.28c-.007.181-.071.39.211.428Zm2.026-.988c.077.109.041.4.245.286.162-.091.016-.278-.127-.375,0-.175-.025-.343-.216-.423,0-.178-.017-.348-.22-.42,0-.18,0-.36-.225-.415.016-.186.014-.364-.218-.422.02-.188.017-.364-.214-.425.017-.186.017-.363-.213-.426a.663.663,0,0,0-.2-.55.327.327,0,0,0-.151-.369l-.214-.423c-.072-.143-.143-.287-.216-.43l-.2-.093c.027.073.053.145.08.218.062.143.124.285.187.427s.141.284.212.425l.184.368c.112.138.08.4.342.41-.023.189-.074.392.212.426-.028.191-.077.393.211.428-.032.192-.074.389.206.432-.054.193-.038.361.169.459a.458.458,0,0,0,.179.449c.065.148.128.3.193.443Zm-2.019-.935c.012.125.024.249.036.374.046-.021.127-.036.131-.062a.254.254,0,0,0-.187-.3.584.584,0,0,0-.2-.548.313.313,0,0,0-.13-.371l-.214-.3c-.172.171-.056.3.065.422l.158.372c.121.132.074.4.345.411Zm-.985.013c.124.072.09.389.249.29s-.029-.284-.127-.411c0-.127.02-.315-.172-.218C101.487,457.263,101.559,457.433,101.666,457.537Zm8.122-.132c.049.08.1.16.147.241.15.3.226.674.722.774a1.606,1.606,0,0,0-.5-.951l-.145-.256-.268-.394-.147-.245q-.545-.849-1.088-1.7c-.116-.216-.183-.477-.541-.587a.865.865,0,0,0,.377.728,6.525,6.525,0,0,0,1.052,1.718c.046.09.091.18.138.27C109.619,457.138,109.7,457.272,109.788,457.4Zm-6.5-.307c.014.125.027.25.04.375.046-.021.129-.037.132-.064a.25.25,0,0,0-.192-.295c.016-.186.021-.366-.214-.425-.036-.118-.071-.235-.107-.352-.024.023-.068.046-.07.072-.013.142.007.268.195.265C103.06,456.859,102.988,457.072,103.289,457.1Zm2.313-.4c.022.089.037.237.16.151.1-.07.014-.176-.084-.23-.017-.17-.038-.336-.232-.4a.977.977,0,0,0-.459-.818c.01-.184,0-.355-.223-.415-.023-.061-.048-.122-.07-.183l-.086.114.166.057c-.054.2-.047.373.195.442a.958.958,0,0,0,.417.86A.392.392,0,0,0,105.6,456.7Zm-4.539-.591.21.3c.17-.169.048-.294-.063-.42l-.211-.43-.189-.3c-.167.161-.056.292.046.424q.1.213.208.426Zm5.168-1.528c.025.088.049.233.167.146.1-.074.01-.174-.087-.227-.028-.165-.048-.335-.25-.388-.019-.085-.031-.233-.148-.149-.1.071-.009.165.1.2,0,.177.028.342.219.42Zm-4.31.036.227.421c.082.371.088.8.684.971a1.826,1.826,0,0,0-.533-1.093c-.078-.141-.157-.282-.236-.423l-.19-.3c-.168.162-.051.292.048.423Zm2.215-.711.062.18.082-.1-.163-.058q-.037-.174-.074-.349c-.028.016-.077.028-.08.048A.219.219,0,0,0,104.135,453.907Zm1.262-.833-.05-.18-.09.092.158.071c-.041.2-.016.36.209.427l.115.2.053-.075-.184-.1c.049-.2.039-.373-.21-.427Zm-2.328.408.058.17.077-.091-.151-.063c-.014-.1-.027-.2-.041-.3l-.118.061.175.225Zm5.995-.67-.166-.266-.279-.352c-.059-.186-.15-.5-.34-.367-.21.145.088.324.2.47l.29.379c.055.089.11.177.164.266l.265.365c.038.206.215.494.33.409.29-.216-.054-.373-.169-.544Zm-1.769.49.155.282a.7.7,0,0,0,.454.579.66.66,0,0,0-.352-.692q-.088-.128-.175-.255c-.031-.163-.061-.327-.257-.378-.019-.129-.041-.255-.225-.2a.3.3,0,0,0-.213-.427c-.024-.061-.049-.122-.073-.183-.031.036-.064.07-.1.105l.164.083a.32.32,0,0,0,.215.423.222.222,0,0,0,.167.264c.013.172.049.329.234.4Zm-1.257-.658-.062-.185-.092.1.164.071c-.044.2-.01.359.21.429,0,.136.019.26.209.217a.525.525,0,0,0,.363.659.658.658,0,0,0-.362-.661c-.009-.136-.037-.251-.217-.208C106.3,452.867,106.271,452.705,106.039,452.644Zm-1.281-.634c-.017-.059-.033-.117-.05-.176l-.085.087.152.07c-.028.191,0,.354.211.425.022.06.045.12.066.18.026-.035.054-.07.081-.106l-.166-.055c.03-.191.034-.37-.21-.426Zm2.581-.242c-.021-.129-.046-.253-.227-.2a.3.3,0,0,0-.215-.423c-.009-.139-.038-.257-.223-.2a.3.3,0,0,0-.209-.43c0-.143-.041-.247-.218-.209a.314.314,0,0,0-.211-.427c0-.141-.048-.238-.215-.212a.343.343,0,0,0-.211-.425l-.082-.161-.062.112.16.03c-.041.2-.013.361.207.43,0,.141.043.243.215.212-.043.2,0,.356.211.427,0,.139.037.246.212.215a.31.31,0,0,0,.212.425c0,.135.031.244.2.223a.32.32,0,0,0,.217.422l.169.26a.377.377,0,0,0,.247.386.851.851,0,0,0,.419.647.91.91,0,0,0,.419.645.968.968,0,0,0,.414.647,47.061,47.061,0,0,0,2.725,4.3c.1.186.176.55.442.36.231-.165-.022-.4-.2-.558a46.807,46.807,0,0,0-2.8-4.244l-.453-.639-.441-.631a.965.965,0,0,0-.422-.6c-.051-.16-.1-.324-.287-.381Zm-1.714.223.05.184.093-.092-.161-.074a.331.331,0,0,0-.209-.427c0-.138-.042-.244-.215-.211.027-.19.018-.363-.212-.425q-.027-.088-.056-.176l-.084.093.158.065c-.028.19,0,.353.21.427,0,.138.034.251.214.212C105.376,451.762,105.38,451.937,105.626,451.991Zm-1.279-.638c.022.058.044.117.065.175l.078-.1-.159-.059c-.015-.1-.029-.2-.044-.3l-.122.063C104.226,451.2,104.287,451.279,104.347,451.353Zm4.792.132-.307-.354c-.058-.185-.155-.494-.338-.362-.206.148.088.319.217.453l.289.374c.031.2.223.482.316.408.286-.226-.059-.358-.176-.52Zm1.251-.661c.1.117.205.234.308.351a1.533,1.533,0,0,0,.54.739l2.048,2.8.285-.223a19.188,19.188,0,0,0-2.171-2.736,1.582,1.582,0,0,0-.541-.718l-.314-.339a.745.745,0,0,0-.367-.485c-.076-.07-.127-.245-.257-.074-.015.02.085.127.133.193Q110.22,450.579,110.389,450.825Zm-1.1-1.637c-.028-.086-.064-.224-.168-.135s.01.157.108.188a.6.6,0,0,0,.355.492l.217.121c.062-.125-.014-.177-.115-.216a.516.516,0,0,0-.4-.451Zm1.963,10.08c-.081-.023-.205-.091-.234-.062-.119.117-.036.226.064.317.076.194.216.523.385.386C111.782,459.654,111.442,459.448,111.25,459.268Zm-1.718-.546c.09.135.174.41.339.3.251-.165-.022-.346-.111-.511q-.2-.328-.39-.657a1.842,1.842,0,0,0-.512-.79,1.411,1.411,0,0,0-.719-.924,2.17,2.17,0,0,0,.531,1.091l.473.806q.195.342.389.682Zm1.1,1.768c.079.021.2.086.231.056.115-.118.03-.221-.071-.307-.121-.243-.127-.612-.577-.53a.9.9,0,0,0,.417.781Zm-3.494-6.178-.156-.185c-.133.122-.041.209.047.3a.727.727,0,0,0,.444.594A.671.671,0,0,0,107.138,454.311Zm-.062,1.766.143.285a3.424,3.424,0,0,0,.7,1.215,8.688,8.688,0,0,0,1.536,2.507,9.259,9.259,0,0,0-1.355-2.669,3.638,3.638,0,0,0-.746-1.185c-.049-.094-.1-.188-.147-.282a1.44,1.44,0,0,0-.491-.783l-.153-.185c-.132.122-.043.207.049.292a1.361,1.361,0,0,0,.468.807Zm6.071-3.091c.1.123.2.377.348.261.242-.186-.031-.319-.152-.452a1.649,1.649,0,0,0-.562-.713l-.3-.338a1.574,1.574,0,0,0-.578-.715c-.086-.065-.165-.219-.275-.047-.017.027.085.13.133.2a1.578,1.578,0,0,0,.538.73l.3.343a1.67,1.67,0,0,0,.549.732Zm.451-.844c.087.039.219.134.254.106.158-.125.031-.23-.063-.328a2.034,2.034,0,0,0-.965-.92,2.167,2.167,0,0,0,.775,1.142Zm-7.32,3.88-.148-.189c-.133.12-.044.209.043.3a2.508,2.508,0,0,0,.893,1.376,3.285,3.285,0,0,0-.787-1.484Zm7.111-5.866c-.094-.071-.193-.209-.292-.026-.018.035.091.137.141.209a6.044,6.044,0,0,0,1.277,1.49,2.55,2.55,0,0,0,1.266,1.2,3.166,3.166,0,0,0-1.063-1.383,6.544,6.544,0,0,0-1.329-1.493Zm-1.949,4.962c.091.132.192.395.347.28.245-.181-.026-.334-.144-.478l-1.364-1.937-.252.2Q110.734,454.149,111.441,455.118Zm-1.313-.813c-.049-.2-.231-.489-.35-.4-.273.212.048.385.173.559l2.24,3.452.364-.253ZM115.991,451a23.337,23.337,0,0,0,3.855,3.459Zm-8.678,6.666-.292.155,2.4,4.545.368-.195Zm13.112-6.621a3.415,3.415,0,0,0-2.278-1.924A9.856,9.856,0,0,0,120.426,451.043Zm-5.168.081a3.872,3.872,0,0,0,1.768,1.858A4.771,4.771,0,0,0,115.258,451.124Zm-9.127,6.431a4.62,4.62,0,0,0,1.041,2.083A3.907,3.907,0,0,0,106.131,457.556Zm16.059-6.309a2.1,2.1,0,0,0-1.607-1.336A2.81,2.81,0,0,0,122.19,451.247Zm-13.927,10.488a3.386,3.386,0,0,0,1.049,1.955A3.257,3.257,0,0,0,108.262,461.734Zm9.307-6.728a2,2,0,0,0-1.245-1.253C116.63,454.467,116.953,454.878,117.569,455.006Zm-.081,1.468a1.634,1.634,0,0,0-1.132-1.222A1.61,1.61,0,0,0,117.489,456.474Zm-14.4,2.092a1.549,1.549,0,0,0,.527,1.195A1.773,1.773,0,0,0,103.09,458.566Zm18.966-10.006c.38.652.661.974,1.338,1.03A1.978,1.978,0,0,0,122.056,448.56Zm-1.234.239c.337.6.623.9,1.158.918A1.431,1.431,0,0,0,120.822,448.8Zm-13.237,6.44c.129.3.074.716.56.793A.821.821,0,0,0,107.585,455.24Zm22.124-11.954c-.441-.452-.7-.748-1.228-.567A1.292,1.292,0,0,0,129.709,443.285Zm-18.055,18.692c-.088-.606-.209-.95-.716-1.163A1.14,1.14,0,0,0,111.654,461.977Zm-1.659-.871c.141.648.217,1.017.718,1.216C110.775,461.81,110.56,461.509,109.995,461.106Zm18.06-17.6a.937.937,0,0,0,1.132.548A1.081,1.081,0,0,0,128.055,443.509ZM115.3,455.525c.158.489.314.759.783.841A.829.829,0,0,0,115.3,455.525Zm-.378,1.05c-.083-.52-.083-.52-.647-.777C114.409,456.191,114.53,456.483,114.923,456.575Zm1.257-.014c.1.5.226.808.807.837A.966.966,0,0,0,116.18,456.561Zm8.195-13.087c.235.284.442.671.978.533A.965.965,0,0,0,124.374,443.474Zm-2.7,3.632c.174.443.386.671.86.6A.769.769,0,0,0,121.676,447.106Zm-12.205,5.056c.053.383.172.626.579.7A.723.723,0,0,0,109.47,452.162Zm6.851,2.775c-.385-.484-.4-.913-.942-.819C115.413,454.528,115.618,454.76,116.321,454.937Zm-4.429.617c.219.566.292.869.7.974C112.724,456.087,112.442,455.908,111.893,455.554ZM126.8,444.89a.85.85,0,0,0-.928-.5C126.147,444.814,126.354,445.061,126.8,444.89Zm-24.315,16.251a.837.837,0,0,0,.313.877A.811.811,0,0,0,102.485,461.141Zm.448-1.047c-.171.371.045.6.264.844C103.367,460.568,103.149,460.341,102.934,460.094Zm-.574.888a.819.819,0,0,0-.284-.881C101.955,460.461,102.141,460.667,102.359,460.983Zm-1.066-.714a.611.611,0,0,0-.3-.74A.809.809,0,0,0,101.293,460.268Zm.352-1.271a.83.83,0,0,0,.278.843C102.068,459.508,101.861,459.3,101.645,459Zm18.964-10.469c-.268-.457-.462-.7-1-.678A1.089,1.089,0,0,0,120.609,448.528Zm-1.557.055c.4.479.491.837,1.066.718C119.955,448.943,119.741,448.732,119.052,448.583Zm3.516-.768c.229.438.408.664.83.534A.734.734,0,0,0,122.568,447.815Zm-.3.8c-.314-.366-.459-.646-.882-.536C121.515,448.469,121.709,448.626,122.265,448.619Zm-.125-2.277c.241.4.406.618.82.525C122.846,446.5,122.642,446.365,122.14,446.341Zm-8.69,11.144c-.148-.091-.209.088-.2.125a.457.457,0,0,0,.268.4.139.139,0,0,0,.206-.129A.408.408,0,0,0,113.45,457.485Zm-.544.721c-.119-.106-.2-.241-.316-.27-.213-.055-.208.131-.149.242a1.256,1.256,0,0,0,.283.273l.182-.245Zm.383.684a.409.409,0,0,0-.366-.36.464.464,0,0,0-.075.253.344.344,0,0,0,.344.307C113.225,459.092,113.269,458.934,113.289,458.89Zm-.034.487c.059.247.187.354.372.37a.428.428,0,0,0,.08-.258.353.353,0,0,0-.352-.313C113.322,459.174,113.276,459.333,113.255,459.377Zm1.555-6.22a.463.463,0,0,0-.382-.353c-.012,0-.091.2-.057.253a1.408,1.408,0,0,0,.291.276Zm-.665.637a.419.419,0,0,0-.358-.344c-.011,0-.086.191-.053.246a1.368,1.368,0,0,0,.276.269l.135-.171Zm.7.8c-.256-.179-.256,0-.326.037a2.775,2.775,0,0,0,.288.378c.127.118.207-.1.2-.105a3.3,3.3,0,0,0-.166-.309Zm-1.045.32c-.031.074-.109.176-.085.224a.83.83,0,0,0,.264.3c.139.093.193-.077.185-.141a.455.455,0,0,0-.363-.384Zm.153,1.665a.454.454,0,0,0-.348-.389c-.01,0-.112.184-.084.239a.926.926,0,0,0,.271.283C113.8,456.72,113.906,456.615,113.95,456.577Zm-.8,1.064c.076-.307.143-.419.111-.481-.058-.114-.165-.266-.269-.28-.2-.027-.178.147-.125.272A5.46,5.46,0,0,0,113.145,457.64Zm9.961-13.032c-.036.053-.127.158-.112.176a.945.945,0,0,0,.29.251c.044.022.208-.077.2-.1C123.45,444.757,123.315,444.661,123.106,444.608Zm-14.561,20.03c.082-.134.187-.233.166-.286a2.776,2.776,0,0,0-.258-.442c-.062.065-.236.048-.166.209S108.439,464.426,108.545,464.638Zm-8.162-11.913a.885.885,0,0,0-.057.166c0,.018.04.043.062.064.033-.039.087-.077.09-.118S100.421,452.766,100.383,452.724Zm.1,1.644-.1-.124c-.024.021-.069.046-.066.061a.932.932,0,0,0,.06.162Zm.779.324a1.092,1.092,0,0,0,.069-.17c0-.018-.038-.046-.059-.07-.037.035-.1.072-.1.1C101.177,454.6,101.231,454.646,101.265,454.693Zm4.507.417a.492.492,0,0,0-.166-.087c-.027,0-.062.077-.094.12a.767.767,0,0,0,.176.1C105.7,455.244,105.744,455.156,105.773,455.11Zm6.974-.04a1.01,1.01,0,0,0-.009.287.225.225,0,0,0,.151.1c.158.034.145-.119.119-.172-.038-.076-.138-.121-.261-.217Zm-14.47,1.077c-.028.022-.081.05-.078.066a1.175,1.175,0,0,0,.068.183c.027-.022.08-.05.077-.067A1.091,1.091,0,0,0,98.276,456.147Zm1.705.636c-.021.025-.063.053-.061.075a1.109,1.109,0,0,0,.05.183c.022-.024.065-.051.063-.073A.9.9,0,0,0,99.981,456.784Zm-.563.348-.1-.123c-.023.021-.07.048-.066.064a1.012,1.012,0,0,0,.061.166Zm.1.5c-.015.068-.049.131-.035.181.028.1.091.1.142.009a.112.112,0,0,0,.012-.091A.638.638,0,0,0,99.516,457.628Zm.955.343-.08-.135c-.019.024-.056.051-.053.073a1.041,1.041,0,0,0,.048.17C100.414,458.044,100.442,458.009,100.471,457.971Zm1.006.795a1.166,1.166,0,0,0,.058-.185c0-.025-.033-.057-.05-.085-.033.038-.093.078-.091.115C101.4,458.663,101.445,458.712,101.477,458.766Zm-1.408.085-.088-.171c-.027.021-.076.043-.077.065a.952.952,0,0,0,.031.182Zm.841.224-.068-.189a.84.84,0,0,0-.086.146c-.009.024.018.062.029.094Zm9.22.1a1.039,1.039,0,0,0-.17.058c.013.088.016.2.072.253s.2.065.2-.077C110.236,459.334,110.165,459.254,110.129,459.178ZM98.267,448.53l.033-.052-.051-.007Zm.212.428.035-.055-.053-.007Zm.178.378.053.037.008-.061Zm.248.479.037-.062-.058-.007Zm.225.327-.038.065.061.007Zm5.582.278-.057-.073c-.021.022-.058.045-.059.068s.034.048.053.073Zm-5.381.251.039-.068-.062-.007Zm.265.379-.06-.043-.008.072Zm6.4,0-.068-.079c-.024.025-.065.05-.066.076s.04.053.062.079Zm19.633-6.84c-.027-.024-.053-.063-.071-.06a.6.6,0,0,0-.135.055c.021.022.046.064.063.062A.648.648,0,0,0,125.629,444.214Zm-25.819,7.263-.06-.044-.009.074Zm1.5,0-.048-.067c-.02.019-.053.037-.055.057s.028.044.044.066Zm-.686.15-.043.075.069.007Zm-.637.213-.042.073.066.007Zm1.537.057-.048-.066c-.02.02-.055.039-.057.06s.03.046.047.068Zm-.7.276c.02-.019.054-.036.057-.057s-.028-.045-.044-.067c-.02.019-.054.036-.056.057S100.8,452.152,100.82,452.174Zm-.625.092-.043.077.07.007Zm1.543.06-.052-.071c-.021.021-.057.04-.059.063s.031.047.048.071Zm-.647.213-.046-.064c-.02.019-.055.038-.056.059s.029.045.046.068Zm.809.14c-.021.021-.057.04-.059.062s.031.047.049.071c.022-.021.057-.041.059-.063S101.916,452.7,101.9,452.679Zm-.641.221c-.021.02-.056.039-.058.061s.03.046.048.069c.02-.02.056-.04.056-.061S101.273,452.921,101.257,452.9Zm.909.275-.055-.072c-.021.021-.057.042-.059.064s.032.048.05.072q.033-.031.064-.064Zm-.7.151c-.021.02-.058.039-.06.061s.03.046.049.07c.02-.021.056-.041.058-.063S101.486,453.346,101.471,453.325Zm.855.2c-.021.021-.059.041-.06.064s.032.048.05.073c.021-.021.058-.042.06-.065S102.344,453.549,102.326,453.525Zm-.642.226c-.021.02-.058.039-.06.061s.031.047.049.071c.021-.021.057-.042.058-.064S101.7,453.772,101.684,453.751Zm1.768.284-.066-.087c-.024.024-.065.048-.066.074s.036.054.057.081Zm.2.4-.052-.067-.059.061.081.069C103.632,454.478,103.643,454.457,103.653,454.436Zm.84-.018c-.019-.012-.045-.038-.055-.033a.271.271,0,0,0-.063.06l.115.038Zm-3.869.392c-.021.02-.059.038-.062.061s.031.048.049.072c.021-.021.057-.042.059-.064S100.637,454.831,100.624,454.811Zm3.162.013c-.011.021-.035.048-.03.064.031.091.074.093.112,0,.007-.016-.01-.049-.026-.064S103.8,454.826,103.786,454.824Zm-2.324.326c.022-.02.061-.04.063-.062s-.032-.05-.051-.074c-.021.022-.059.044-.061.067S101.446,455.13,101.461,455.15Zm.281.368-.056-.077c-.023.023-.061.044-.063.068s.033.051.052.077C101.7,455.563,101.721,455.541,101.742,455.518Zm4.252-.021-.065-.073-.067.071.1.073C105.972,455.544,105.984,455.52,105.995,455.5Zm24.073-13.015c-.025-.024-.051-.066-.077-.066s-.049.044-.074.068l.115.07Zm-28.11,13.469q-.03-.042-.062-.082c-.021.023-.061.045-.062.07s.034.051.053.077l.071-.065Zm-.425.851-.061-.082c-.023.023-.061.045-.063.069s.034.051.054.077Zm4.458.38c-.022-.013-.051-.042-.065-.036s-.048.045-.071.068l.134.041C105.988,457.23,105.988,457.206,105.99,457.182Zm-5.746.254-.05-.074c-.02.022-.055.042-.057.065s.029.049.046.074Zm3.4.388c-.021-.012-.047-.039-.059-.034a.277.277,0,0,0-.065.063l.121.039C103.644,457.868,103.646,457.846,103.647,457.823Zm-3.82.468q-.028-.041-.058-.081c-.021.022-.058.043-.06.067s.032.05.05.075Zm2.338-.024-.053-.067-.06.061.082.069C102.144,458.31,102.154,458.289,102.165,458.268Zm.836-.019c-.019-.012-.046-.038-.057-.033a.277.277,0,0,0-.064.062l.119.038A.54.54,0,0,1,103,458.249Zm.854,0c-.02-.013-.048-.039-.061-.034a.283.283,0,0,0-.066.064l.124.039A.536.536,0,0,1,103.854,458.248Zm-3.176.25c-.018-.026-.039-.053-.058-.079-.022.023-.061.046-.063.071s.035.053.055.079Zm10.169.284.065-.072a.637.637,0,0,0-.126-.067c-.016,0-.043.039-.065.06Zm-5.709.316c-.022-.013-.051-.041-.064-.035s-.047.044-.07.067l.132.041c0-.024,0-.049,0-.073Zm.21.425c-.022-.013-.052-.042-.065-.036s-.047.045-.071.069l.135.04C105.347,459.572,105.347,459.547,105.348,459.523Zm4.3.863-.062-.072a.61.61,0,0,0-.063.126c0,.016.035.044.054.066C109.6,460.466,109.623,460.424,109.646,460.386Zm.076.471.075.072.07-.077-.109-.074C109.747,460.8,109.736,460.83,109.722,460.857Zm-1.61.692c.023-.025.066-.051.065-.076s-.043-.05-.068-.075l-.07.115Zm153.544-12.991c0-3.3-.02-6.595.015-9.892.008-.714-.136-1.051-.92-.962-.56.063-1.138-.033-1.7.023-.755.075-1.067-.12-1.034-.967.07-1.806.056-3.617,0-5.424-.02-.725.236-.924.909-.868.6.05,1.21-.039,1.806.022.766.08.941-.224.935-.952-.033-4.148.012-8.3-.038-12.444-.01-.888.221-1.145,1.109-1.107,1.7.074,3.4.063,5.1,0,.812-.028,1.079.17,1.069,1.036-.048,4.112,0,8.225-.042,12.337-.009.85.161,1.158,1.083,1.138,2.555-.055,2.555-.011,2.555,2.57,0,1.312-.024,2.625.011,3.935.014.568-.19.782-.737.708a.971.971,0,0,0-.212,0c-.868.084-2.024-.4-2.527.215-.424.515-.15,1.622-.151,2.468-.005,5.992-.018,11.984.016,17.975,0,.822-.189,1.1-1.048,1.067-1.734-.07-3.475-.059-5.211,0-.776.025-1.03-.168-1.018-.989.049-3.3.02-6.594.02-9.892Zm-8.7-3.613c0,4.432-.034,8.865.026,13.3.014,1.016-.309,1.241-1.249,1.2-1.7-.072-3.4-.047-5.1-.007-.669.016-.926-.141-.924-.872q.035-13.615,0-27.229c0-.739.266-.88.925-.866,1.808.037,3.617.052,5.424-.006.785-.025.923.268.919.975C252.942,435.939,252.955,440.441,252.956,444.944ZM249.4,419.631a3.546,3.546,0,0,1,3.545,3.7,3.606,3.606,0,0,1-3.646,3.523,3.679,3.679,0,0,1-3.579-3.622A3.636,3.636,0,0,1,249.4,419.631Z" transform="translate(0 -34.461)" fill="#feb11c" fill-rule="evenodd"/>
  </g>
</svg>
