<svg xmlns="http://www.w3.org/2000/svg" width="273.692" height="85.114" viewBox="0 0 273.692 85.114">
  <g id="Group_150" data-name="Group 150" transform="translate(-8708.323 -3150)">
    <path id="Path_611" data-name="Path 611" d="M-1114.18,309.4a9.019,9.019,0,0,1-6.511-2.654,9.027,9.027,0,0,1-2.63-6.519,9.147,9.147,0,0,1,2.641-6.562,9.146,9.146,0,0,1,6.532-2.711,8.788,8.788,0,0,1,7.058,3.058l-2.512,2.711a5.951,5.951,0,0,0-4.578-2.215,5.3,5.3,0,0,0-3.739,1.752,5.306,5.306,0,0,0-1.352,3.9,5.379,5.379,0,0,0,1.416,4,5.385,5.385,0,0,0,3.872,1.735,6.215,6.215,0,0,0,4.578-2.215l2.446,2.414a8.963,8.963,0,0,1-7.223,3.305m14.908,0h-4.05V290.983h4.05v4.331a6.279,6.279,0,0,1,6.264-4.331v4.3h-.231c-3.554,0-6.033,2.3-6.033,6.992Zm27.471-18.446-8.958,23.4h-4.1l1.951-4.942-7.669-18.462h4.314l5.24,13.636L-1076,290.95Zm12.942,18.413a7.189,7.189,0,0,1-6.049-3.058v8.1h-4.05V290.95h4.05v3.306a7.071,7.071,0,0,1,5.983-3.306c4.182,0,8.264,3.306,8.264,9.207s-4.049,9.206-8.2,9.206m-.926-14.876a5.307,5.307,0,0,0-3.795,1.739,5.3,5.3,0,0,0-1.362,3.947,5.321,5.321,0,0,0,1.36,3.952,5.331,5.331,0,0,0,3.8,1.75,5.188,5.188,0,0,0,3.711-1.78,5.192,5.192,0,0,0,1.248-3.922,5.214,5.214,0,0,0-1.283-3.934,5.219,5.219,0,0,0-3.742-1.769Zm17.983.248v8.677a1.911,1.911,0,0,0,.529,1.646,1.915,1.915,0,0,0,1.636.552h1.653v3.62h-2.827c-2.959,0-4.958-1.322-4.958-5.19v-9.306h-2.331v-3.4h2.248v-4.859h4.049v4.859h3.752v3.4Zm16.578,14.661a9.152,9.152,0,0,1-6.631-2.6,9.153,9.153,0,0,1-2.757-6.569,9.437,9.437,0,0,1,5.651-8.91,9.438,9.438,0,0,1,10.38,1.9,9.436,9.436,0,0,1,2.134,10.332,9.435,9.435,0,0,1-8.777,5.856m0-14.875a5.318,5.318,0,0,0-3.9,1.668,5.325,5.325,0,0,0-1.443,3.985,5.464,5.464,0,0,0,1.483,4.016,5.471,5.471,0,0,0,3.922,1.719,5.327,5.327,0,0,0,3.914-1.668,5.328,5.328,0,0,0,1.442-4,5.475,5.475,0,0,0-1.488-4.023,5.474,5.474,0,0,0-3.934-1.713Zm48.2,14.875a9.134,9.134,0,0,1-6.625-2.6,9.145,9.145,0,0,1-2.747-6.569,9.424,9.424,0,0,1,5.653-8.884,9.42,9.42,0,0,1,10.355,1.9,9.417,9.417,0,0,1,2.124,10.314,9.419,9.419,0,0,1-8.76,5.839m0-14.875a5.3,5.3,0,0,0-3.891,1.669,5.309,5.309,0,0,0-1.432,3.983,5.459,5.459,0,0,0,1.471,4.016,5.458,5.458,0,0,0,3.917,1.719,5.326,5.326,0,0,0,3.914-1.668,5.327,5.327,0,0,0,1.442-4,5.475,5.475,0,0,0-1.487-4.023,5.475,5.475,0,0,0-3.934-1.713Zm33.536-3.57c3.851,0,6.2,2.446,6.2,6.777V309.4h-4.049V298.95c0-2.81-1.306-4.314-3.587-4.314s-3.768,1.537-3.768,4.4V309.4h-4.066V298.917c0-2.744-1.339-4.281-3.57-4.281s-3.785,1.653-3.785,4.43V309.4h-4.049V290.95h4.049v3.058a6.346,6.346,0,0,1,5.388-3.058,5.551,5.551,0,0,1,5.256,3.124,7.2,7.2,0,0,1,5.983-3.124m-64.858,14.744v2.033a.2.2,0,0,1-.116.2l-1.769,1.025a.2.2,0,0,1-.231,0l-1.769-.992a.229.229,0,0,1-.116-.2v-2.066a.279.279,0,0,1,.116-.215l1.769-1.025a.282.282,0,0,1,.231,0l1.769,1.025a.245.245,0,0,1,.116.215m12.3,3.686a9.021,9.021,0,0,1-6.451-2.777,9.027,9.027,0,0,1-2.507-6.562,9.141,9.141,0,0,1,2.765-6.519,9.141,9.141,0,0,1,6.59-2.589,8.889,8.889,0,0,1,7.008,3.19l-2.446,2.661a5.979,5.979,0,0,0-4.546-2.3,5.32,5.32,0,0,0-3.772,1.681,5.319,5.319,0,0,0-1.435,3.873,5.4,5.4,0,0,0,1.349,4.026,5.412,5.412,0,0,0,3.841,1.808,6.254,6.254,0,0,0,4.628-2.132l2.4,2.463a8.993,8.993,0,0,1-7.421,3.173" transform="translate(9919.308 2892.011)" fill="#002d74"/>
    <g id="Group_149" data-name="Group 149" transform="translate(8708.323 3150)">
      <path id="Path_612" data-name="Path 612" d="M-865.2-86.04l-36.766,21.447v42.4L-865.2-.927l36.766-21.263V-64.746Zm0,0-36.766,21.447v42.4L-865.2-.927l36.766-21.263V-64.746Z" transform="translate(901.964 86.04)" fill="#fff"/>
      <path id="Path_613" data-name="Path 613" d="M-865.2-86.041l-36.766,21.447v42.4L-865.2-.928l36.766-21.263V-64.747Zm-14.553,18.383h28.984l3.493,14.767H-883.03Zm11.734,44.241L-874.39-17.5h-5.178l-13.205-23.07,9.713-7.2,8.671,5.454v9.712l6.5,6.128Zm-4.259-9.681.98-9.192-3.064-8.272H-855.7l-3.064,8.272.919,9.192Zm21.661,15.5h-5.209l-6.311-5.821v-2.911l6.465-6.128V-42.32l8.579-5.607,9.682,7.292Z" transform="translate(901.964 86.041)" fill="#002d74"/>
    </g>
  </g>
</svg>
