<svg xmlns="http://www.w3.org/2000/svg" width="186.598" height="55.625" viewBox="0 0 186.598 55.625">
  <g id="huobi-1" transform="translate(-0.102 0.008)">
    <path id="Path_418" data-name="Path 418" d="M607.506,176.408V192.1H591.913V178.434a2.035,2.035,0,0,0-2.035-2.034H584.6v37.571a2.035,2.035,0,0,0,2.034,2.035h5.279V198.481h15.6v15.483a2.035,2.035,0,0,0,2,2.066h5.31V178.434a2.035,2.035,0,0,0-2.035-2.034h-5.286Zm30.965,9.819v18.829a4.822,4.822,0,0,1-2.357,4.187,5.453,5.453,0,0,1-8.413-4.532V188.261a2.035,2.035,0,0,0-2.035-2.034h-5.279v19.159a11.234,11.234,0,0,0,11.186,11.2h3a11.241,11.241,0,0,0,11.209-11.209V188.261a2.035,2.035,0,0,0-2.034-2.034Z" transform="translate(-538.584 -162.55)" fill="#1b2143"/>
    <path id="Path_419" data-name="Path 419" d="M2263.234,344.111h5.279V317.435a2.035,2.035,0,0,0-2.035-2.034H2261.2v26.66a2.034,2.034,0,0,0,2.019,2.05Z" transform="translate(-2083.484 -290.632)" fill="#2ca6e0"/>
    <circle id="Ellipse_7" data-name="Ellipse 7" cx="4.077" cy="4.077" r="4.077" transform="translate(176.047 20.079) rotate(-67.5)" fill="#2ca6e0"/>
    <path id="Path_420" data-name="Path 420" d="M1440.327,301.3c-7.659,0-13.927,5.475-13.927,13.134v4.14c0,7.659,6.268,13.1,13.927,13.1s13.927-5.444,13.927-13.1v-4.14C1454.262,306.775,1447.994,301.3,1440.327,301.3Zm6.583,17.768c0,3.621-2.961,6.033-6.59,6.033s-6.583-2.411-6.583-6.033V313.9c0-3.621,2.961-6.033,6.583-6.033s6.59,2.412,6.59,6.033Z" transform="translate(-1314.259 -277.639)" fill="#1b2143"/>
    <path id="Path_421" data-name="Path 421" d="M1857.735,186.672a14.99,14.99,0,0,0-6.622,1.5v-9.238a2.035,2.035,0,0,0-2.035-2.034H1843.8v27.045c0,7.659,6.268,13.1,13.927,13.1s13.927-5.444,13.927-13.1v-4.14C1871.662,192.147,1865.41,186.672,1857.735,186.672Zm6.591,17.768c0,3.621-2.962,6.033-6.591,6.033s-6.583-2.412-6.583-6.033v-5.169c0-3.621,2.961-6.033,6.583-6.033s6.591,2.412,6.591,6.033Z" transform="translate(-1698.872 -163.011)" fill="#2ca6e0"/>
    <path id="Path_422" data-name="Path 422" d="M23.911,17.1c0-7.981-3.888-14.854-6.85-17.085,0,0-.228-.126-.2.2-.244,15.42-8.122,19.6-12.45,25.223C-5.585,38.429,3.7,52.67,13.173,55.3c5.279,1.477-1.225-2.608-2.066-11.225-1.029-10.4,12.8-18.35,12.8-26.975Z" transform="translate(0 0)" fill="#1b2143"/>
    <path id="Path_423" data-name="Path 423" d="M247.565,284.262c-.063-.039-.149-.071-.2.031-.165,1.94-2.144,6.088-4.658,9.905-8.523,12.93-3.668,19.167-.935,22.521,1.587,1.94,0,0,3.959-1.987a17.875,17.875,0,0,0,8.539-13.809A20,20,0,0,0,247.565,284.262Z" transform="translate(-219.113 -261.906)" fill="#2ca6e0"/>
  </g>
</svg>
