<svg xmlns="http://www.w3.org/2000/svg" width="220.002" height="66.353" viewBox="0 0 220.002 66.353">
  <path id="Logo_Biget" d="M38.131,44.98H24.561L10.68,31.187a2.3,2.3,0,0,1-.009-3.258l17.8-17.893H42.451l-4.226,4.108L22.709,29.562,38.028,44.98M32.553,29.6H46.122L60,43.39a2.3,2.3,0,0,1,.009,3.258l-17.8,17.892H28.233l4.226-4.108L47.974,45.014,32.656,29.6M139.448,40.287v-7.62h-6.53V21.917h-8.986v10.75h-5.577v7.62h5.577V52.761c0,6.935,1.366,12.031,9.881,11.874l5.345-.1V57.385h-2.652c-3.785,0-3.574-2.206-3.574-6.3l-.015-10.793h6.529Zm90.554,0v-7.62h-6.53V21.917h-8.986v10.75h-5.577v7.62h5.577V52.761c0,6.935,1.366,12.031,9.881,11.874l5.345-.1V57.385H227.06c-3.785,0-3.574-2.206-3.574-6.3l-.015-10.793H230Zm-64.916-4.006a11.278,11.278,0,0,0-3.739-2.97,13.391,13.391,0,0,0-5.872-1.23,13.228,13.228,0,0,0-7.2,1.98,13.526,13.526,0,0,0-4.88,5.508,18.159,18.159,0,0,0-1.753,8.154,16.827,16.827,0,0,0,1.846,8.01,14.33,14.33,0,0,0,5.059,5.59,13.273,13.273,0,0,0,7.231,2.04,11.459,11.459,0,0,0,5.461-1.3,9.749,9.749,0,0,0,3.185-2.681v3.469a6.637,6.637,0,0,1-1.677,4.9,8.466,8.466,0,0,1-9.53.359,4.676,4.676,0,0,1-1.8-3.583H142.7a10.675,10.675,0,0,0,2.019,6.2,12.337,12.337,0,0,0,5.325,4.2,19.432,19.432,0,0,0,7.725,1.457c4.843,0,8.7-1.217,11.458-3.615,2.776-2.412,4.183-5.789,4.183-10.036V32.666h-8.323Zm-1.593,15.675a6.53,6.53,0,0,1-2.41,2.755,6.81,6.81,0,0,1-3.679.97,6.038,6.038,0,0,1-4.87-2.132,8.683,8.683,0,0,1-1.846-5.827,8.693,8.693,0,0,1,1.846-5.829,6.119,6.119,0,0,1,4.87-2.132,6.508,6.508,0,0,1,5.051,2.164,8.626,8.626,0,0,1,1.907,5.853,9.54,9.54,0,0,1-.87,4.176ZM115.544,21.917H106.12V29.6h9.424Zm89.162,15.541a14.6,14.6,0,0,0-5.334-3.973,17.3,17.3,0,0,0-7.035-1.405,16.687,16.687,0,0,0-8.421,2.118,15.338,15.338,0,0,0-5.791,5.823,16.946,16.946,0,0,0-2.093,8.46,18.388,18.388,0,0,0,2.029,8.686A14.363,14.363,0,0,0,183.828,63a17.651,17.651,0,0,0,8.629,2.056,16.621,16.621,0,0,0,10.081-2.987,14.6,14.6,0,0,0,5.354-7.966h-9.107a6.332,6.332,0,0,1-2.121,2.809,7.433,7.433,0,0,1-4.387,1.222,6.3,6.3,0,0,1-6.315-4.34,12.382,12.382,0,0,1-.681-2.875h22.77l.045-.283a17.113,17.113,0,0,0-.309-7.237,15.56,15.56,0,0,0-3.081-5.941ZM185.425,45.02a13.007,13.007,0,0,1,.565-1.938,7.015,7.015,0,0,1,2.384-3.264,6.342,6.342,0,0,1,3.784-1.106,6.08,6.08,0,0,1,4.549,1.794,7.063,7.063,0,0,1,1.847,4.514H185.426ZM115.358,32.667h-9.046V64.53h9.046ZM96.227,42.232a11.9,11.9,0,0,0,3.946-3.49,9.117,9.117,0,0,0,1.659-5.331,9.988,9.988,0,0,0-4.086-8.536c-2.678-1.963-6.362-2.957-10.955-2.957H70.186V64.531H87.455c4.836,0,8.709-1.125,11.508-3.344a11.28,11.28,0,0,0,4.255-9.317,9.615,9.615,0,0,0-2-6.14,11.629,11.629,0,0,0-4.989-3.5ZM79.172,29.6h6.9a7.892,7.892,0,0,1,4.857,1.244,3.892,3.892,0,0,1,1.557,3.27,4,4,0,0,1-1.557,3.328,7.892,7.892,0,0,1-4.857,1.244h-6.9ZM92.156,55.407a8.6,8.6,0,0,1-5.425,1.443H79.172V46.422h7.559a8.9,8.9,0,0,1,5.43,1.389A4.4,4.4,0,0,1,93.93,51.52a4.674,4.674,0,0,1-1.774,3.888Z" transform="translate(-10 -10.036)" fill="#03aac1"/>
</svg>
