<svg xmlns="http://www.w3.org/2000/svg" width="208.116" height="60.4" viewBox="0 0 208.116 60.4">
  <g id="bing-x" transform="translate(-27.479 -391.255)">
    <path id="Path_394" data-name="Path 394" d="M71.477,418.541c5.5,7.346,12.92,11.25,21.952,12.219,3.3.354,3.31.28,3.311,3.56,0,3.317-.09,6.636.037,9.947.065,1.7-.6,2.049-2.115,1.946-11.973-.811-22.429-5.074-31.1-13.492-.487-.473-.853-1.256-1.768-1.051-.6-.283-.916-.856-1.351-1.311-.619-.879-1.283-1.724-1.97-2.552a62.652,62.652,0,0,1-5.541-8.833C48.039,412,41.1,408.4,32.92,406.887c-1.654-.306-3.927.137-4.856-.807-1.095-1.112-.308-3.388-.348-5.156-.056-2.432.118-4.876-.056-7.3-.138-1.933.472-2.48,2.4-2.354a47.768,47.768,0,0,1,30.586,13.193c.526.5,1.081.963,1.623,1.442a4.83,4.83,0,0,1,2.22,1.82,22.729,22.729,0,0,0,1.557,2.048A53.084,53.084,0,0,1,71.477,418.541Z" transform="translate(0)" fill="#2a54fe" fill-rule="evenodd"/>
    <path id="Path_395" data-name="Path 395" d="M427.574,452.966c0-5.43.046-10.861-.03-16.289-.021-1.467.363-1.956,1.9-1.92,4.454.1,8.914-.012,13.371.047,8.9.12,13.752,8.538,9.289,16.2-.63,1.081-.345,1.452.369,2.138a9.889,9.889,0,0,1,2.551,11.546c-1.741,4.325-5.247,6.458-9.9,6.513-5.267.061-10.536-.031-15.8.046-1.375.02-1.79-.36-1.771-1.751C427.618,463.988,427.574,458.477,427.574,452.966Zm87.186-7.79c2.027,0,4.055.009,6.082,0,.773,0,1.644.012,1.37,1.084-.461,1.8,1.335,4.1-1.242,5.478-.511.272.115.855.275,1.271a13.072,13.072,0,0,1-1.217,12.519c-.371.567-.824.922-.194,1.824,4.635,6.635,1.787,15.152-5.967,18.129-7.855,3.016-16.792-2.385-17.527-10.5-.132-1.459.238-1.886,1.622-1.744a13.149,13.149,0,0,0,2.673,0c1.908-.2,3,.145,3.779,2.365,1.3,3.718,6.768,4.267,9.284,1.235,1.72-2.074,1.132-4.259-1.374-5.168a10.468,10.468,0,0,0-3.35-.454,13.005,13.005,0,0,1-12.748-12.739,12.858,12.858,0,0,1,11.731-13.151c2.247-.218,4.533-.034,6.8-.034C514.759,445.248,514.759,445.211,514.76,445.176Zm39.673,26.041c-2.532,0-5.021-.043-7.507.02-1.064.027-1.34-.738-1.756-1.4-1.842-2.946-3.673-5.9-5.755-9.249-1.931,3.1-3.812,5.948-5.491,8.907a3.055,3.055,0,0,1-3.277,1.759c-2.071-.142-4.159-.035-6.594-.035,3.4-5.46,6.573-10.682,9.891-15.812a2.821,2.821,0,0,0,.02-3.632c-3.307-5.08-6.445-10.269-9.908-15.836,2.924,0,5.535-.016,8.147.009.9.009,1.105.857,1.477,1.44,1.9,2.992,3.772,6,5.742,9.148,1.967-3.154,3.866-6.056,5.6-9.054a2.782,2.782,0,0,1,2.914-1.582c2.085.111,4.181.029,6.23.029.44.906-.229,1.338-.531,1.828-2.884,4.681-5.744,9.379-8.752,13.979a2.826,2.826,0,0,0-.039,3.634c2.92,4.467,5.7,9.023,8.507,13.563a4.3,4.3,0,0,1,1.083,2.284Zm-84.268-12.932c0-3.646.138-7.3-.055-10.937-.1-1.958.609-2.475,2.316-2.166,1.888.342,4-.875,5.719.87.168.171.887-.188,1.345-.318,7.165-2.03,14.2,1.584,13.828,10.564-.175,4.288-.08,8.59,0,12.884.027,1.468-.2,2.1-1.938,2.087-5.637-.045-5.637.043-5.637-5.605,0-3.16.019-6.321-.006-9.482-.022-2.818-1.49-4.571-3.843-4.667-2.431-.1-4.11,1.671-4.159,4.624-.072,4.376-.059,8.753,0,13.128.019,1.335-.114,1.992-1.777,2-5.8.027-5.795.108-5.795-5.689Z" transform="translate(-318.837 -34.668)" fill="#333" fill-rule="evenodd"/>
    <path id="Path_396" data-name="Path 396" d="M73.167,398.1c6.906-4.444,14.548-6.408,22.676-6.784,1.214-.056,1.725.272,1.7,1.6-.076,4.044-.048,8.09-.013,12.135.009,1-.276,1.428-1.359,1.464a37.373,37.373,0,0,0-12.208,2.776c-1.2-1.016-1.812-2.465-2.706-3.706a23.039,23.039,0,0,0-6.249-5.68C74.275,399.422,73.393,399.094,73.167,398.1ZM52.474,439.588c-6.837,4.421-14.484,6.106-22.469,6.669-1.149.08-1.562-.318-1.546-1.493.055-4.043.061-8.089,0-12.132-.02-1.233.322-1.694,1.619-1.7a32.419,32.419,0,0,0,11.962-2.771c1.229.539,1.521,1.828,2.2,2.795a22,22,0,0,0,6.332,6.558A3.457,3.457,0,0,1,52.474,439.588Z" transform="translate(-0.777 -0.041)" fill="#2a54fe" fill-rule="evenodd"/>
    <path id="Path_397" data-name="Path 397" d="M583.388,498.716c0-3.72.056-7.441-.03-11.159-.031-1.393.428-1.752,1.791-1.781,5.789-.124,5.788-.171,5.788,5.706,0,6.146-.059,12.293.041,18.438.026,1.6-.426,1.988-1.993,1.978-5.6-.039-5.6.024-5.6-5.659Z" transform="translate(-443.016 -75.304)" fill="#333" fill-rule="evenodd"/>
    <path id="Path_398" data-name="Path 398" d="M591.039,438.814c0,3.749,0,3.749-4.551,3.749-3.009,0-3.009,0-3.008-4.616,0-3.023,0-3.023,4.846-3.021C591.039,434.927,591.039,434.927,591.039,438.814Z" transform="translate(-443.115 -34.804)" fill="#333" fill-rule="evenodd"/>
    <path id="Path_399" data-name="Path 399" d="M105.789,466.24a25.61,25.61,0,0,1-10.438-11.432l1.977-.935c1.758,2.156,3.051,4.656,5.122,6.593,1.763,1.648,3.944,2.693,5.732,4.282A5.18,5.18,0,0,1,105.789,466.24Zm20.693-41.491c3.951,2.268,7.516,4.947,9.819,9.018a5.6,5.6,0,0,1,.977,2.174l-1.953.986a26.3,26.3,0,0,0-9.29-9.611c-.589-.342-1.336-.72-.978-1.674A2.172,2.172,0,0,1,126.481,424.749Z" transform="translate(-54.091 -26.693)" fill="#2952f7" fill-rule="evenodd"/>
    <path id="Path_400" data-name="Path 400" d="M220.656,438.665a2.346,2.346,0,0,1,1.33-1.022,2.425,2.425,0,0,1,2.3-.2,17.81,17.81,0,0,1,9.382,8.526c.283.562.57,1.177.069,1.794l-1.46.956c-.9-.5-1.207-1.479-1.8-2.23a18.847,18.847,0,0,0-7.5-6.272C222.128,439.863,221.05,439.743,220.656,438.665Z" transform="translate(-153.956 -36.649)" fill="#274eeb" fill-rule="evenodd"/>
    <path id="Path_401" data-name="Path 401" d="M238.951,441.313c-2.195-5.371-5.841-9.055-11.746-10.118a7.409,7.409,0,0,1,2.935-2.045c2.574,2.152,5.525,3.859,7.671,6.519,1.157,1.434,2.551,2.731,2.6,4.767Z" transform="translate(-159.175 -30.202)" fill="#2850f1" fill-rule="evenodd"/>
    <path id="Path_402" data-name="Path 402" d="M200.732,460.83a5.378,5.378,0,0,1-1.921-1.949l1.373-1.157a14.282,14.282,0,0,1,11.3,7.236,2.446,2.446,0,0,1,.5,2.259,3.367,3.367,0,0,1-1.494,1.39c-.706-.179-.984-.778-1.285-1.339A11.63,11.63,0,0,0,200.732,460.83Z" transform="translate(-136.546 -52.973)" fill="#2448d9" fill-rule="evenodd"/>
    <path id="Path_403" data-name="Path 403" d="M125.167,569.417a2.082,2.082,0,0,1-1.336,1.016,3.144,3.144,0,0,1-1.652.241c-4.14-.876-8.994-6.121-9.721-10.533a2.7,2.7,0,0,1,1.461-.974,2.369,2.369,0,0,1,1.571,1.41,17.523,17.523,0,0,0,8.3,7.572A2.048,2.048,0,0,1,125.167,569.417Z" transform="translate(-67.725 -133.82)" fill="#274eeb" fill-rule="evenodd"/>
    <path id="Path_404" data-name="Path 404" d="M106.587,563.965c.642,1.12,1.3,2.233,1.924,3.363a14.08,14.08,0,0,0,9.449,6.929,4.211,4.211,0,0,1-2.015,1.442,18.245,18.245,0,0,1-10.854-10.875Z" transform="translate(-61.854 -137.644)" fill="#2850f1" fill-rule="evenodd"/>
    <path id="Path_405" data-name="Path 405" d="M145.484,550.247a1.562,1.562,0,0,1,.981,1.467l-1.1.962c-4.01.264-6.881-1.862-9.239-4.706-1.145-1.381-2.807-2.711-2.315-4.94l1.269-1.118c1.249-.234,1.44.86,1.778,1.567C138.623,547.178,141.674,549.184,145.484,550.247Z" transform="translate(-84.672 -120.042)" fill="#2448da" fill-rule="evenodd"/>
    <path id="Path_406" data-name="Path 406" d="M212.366,444.257c5.2,1.814,9.391,4.8,11.615,10.051l-1.474,1.07c-.8-.2-1.09-.9-1.457-1.508a14.259,14.259,0,0,0-9.782-7.149,1.494,1.494,0,0,1-1.014-.578A5.468,5.468,0,0,1,212.366,444.257Z" transform="translate(-145.666 -42.241)" fill="#264ce6" fill-rule="evenodd"/>
    <path id="Path_407" data-name="Path 407" d="M206.525,453.551c6.137.355,9.723,4.095,12.253,9.235l-1.4,1.108a14.559,14.559,0,0,0-10.61-8.822c-.484-.111-.943-.182-1.191-.673A1.347,1.347,0,0,1,206.525,453.551Z" transform="translate(-141.937 -49.648)" fill="#254ae0" fill-rule="evenodd"/>
    <path id="Path_408" data-name="Path 408" d="M128.844,547.545a15.082,15.082,0,0,0,11.554,9.646,2.834,2.834,0,0,1-1.435,1.458c-1.478.711-2.637-.243-3.839-.791a14.176,14.176,0,0,1-6.957-6.49c-.48-.927-1.065-1.866-.327-2.939Z" transform="translate(-79.705 -124.558)" fill="#264ae0" fill-rule="evenodd"/>
    <path id="Path_409" data-name="Path 409" d="M121.594,551.9c.995,5.1,4.691,7.673,9.039,9.613a15.554,15.554,0,0,0,2.084.607,4.613,4.613,0,0,1-1.816,1.506c-5.191-1.834-8.732-5.479-11.248-10.25Z" transform="translate(-73.459 -128.029)" fill="#264ce5" fill-rule="evenodd"/>
    <path id="Path_410" data-name="Path 410" d="M150.814,541.1c-2.587.654-4.2-1.208-6.053-2.388-2.211-1.406-2.656-4.142-4.352-5.947a8.883,8.883,0,0,1,2.114-2.362c1.008,2.231,1.348,4.8,3.547,6.415a11.408,11.408,0,0,0,2.8,1.847A4.779,4.779,0,0,1,150.814,541.1Z" transform="translate(-90.002 -110.896)" fill="#2446d4" fill-rule="evenodd"/>
    <path id="Path_411" data-name="Path 411" d="M208.273,471.959c2.321-.9,3.88.647,5.468,1.823a13.507,13.507,0,0,1,4.292,5.956,3.676,3.676,0,0,1-1.434,1.54,4.766,4.766,0,0,1-1.562-2.35c-1.133-2.369-3.316-3.6-5.308-5.038A2.424,2.424,0,0,1,208.273,471.959Z" transform="translate(-144.087 -64.103)" fill="#2346d4" fill-rule="evenodd"/>
    <path id="Path_412" data-name="Path 412" d="M157.068,536.573c-.6.821-1.241.225-1.655-.105-2.624-2.092-4.991-4.369-4.691-8.156l.41-.533C153.663,530.335,155.143,533.6,157.068,536.573Z" transform="translate(-98.199 -108.804)" fill="#2244cf" fill-rule="evenodd"/>
    <path id="Path_413" data-name="Path 413" d="M215.445,482.536c3.99.881,5.725,3.86,6.87,7.387l-1.035,1.365C218.884,488.672,217.317,485.5,215.445,482.536Z" transform="translate(-149.803 -72.748)" fill="#2244ce" fill-rule="evenodd"/>
    <path id="Path_414" data-name="Path 414" d="M470.153,548.7c-5.283,0-5.283,0-5.283-5.173,0-3.588,0-3.59,3.709-3.587,1.782,0,3.568-.072,5.345.034a4.424,4.424,0,0,1,4.374,4.565,4.34,4.34,0,0,1-4.5,4.155c-1.214.038-2.43.007-3.645.007Z" transform="translate(-348.586 -118.482)" fill="#fefefe" fill-rule="evenodd"/>
    <path id="Path_415" data-name="Path 415" d="M464.869,470.325c0-4.306,0-4.307,4.231-4.305,1.051,0,2.11-.075,3.15.028a4.346,4.346,0,0,1,4.05,4.583,4.28,4.28,0,0,1-4.232,4.128c-.886.057-1.777.02-2.666.02C464.869,474.779,464.869,474.779,464.869,470.325Zm74.054,18.23a5.468,5.468,0,1,1,.266-10.931,5.468,5.468,0,0,1-.266,10.931Z" transform="translate(-348.586 -59.564)" fill="#fdfdfd" fill-rule="evenodd"/>
  </g>
</svg>
