<svg xmlns="http://www.w3.org/2000/svg" xmlns:xlink="http://www.w3.org/1999/xlink" width="80.971" height="104.943" viewBox="0 0 80.971 104.943">
  <defs>
    <linearGradient id="linear-gradient" x1="1" y1="0.5" x2="0" y2="0.5" gradientUnits="objectBoundingBox">
      <stop offset="0" stop-color="#cfcf5a"/>
      <stop offset="1" stop-color="#1ba365"/>
    </linearGradient>
    <linearGradient id="linear-gradient-2" x1="1" y1="0.5" x2="-0.303" y2="0.632" gradientUnits="objectBoundingBox">
      <stop offset="0" stop-color="#b05acf"/>
      <stop offset="1" stop-color="#34a7a4"/>
    </linearGradient>
  </defs>
  <g id="Group_278" data-name="Group 278" transform="matrix(0.966, 0.259, -0.259, 0.966, -1172.449, -4918.626)">
    <path id="Path_837" data-name="Path 837" d="M.327,63.339c1.252-1.959,2.951.459,3.94,2.048a50.092,50.092,0,0,1,1.086-5.059c-1.773-.635-4.467-2.406-3.484-4.4a1.341,1.341,0,0,1,2.2-.3,6.052,6.052,0,0,1,1.015,1.625q.37.7.742,1.4c.378-1.256.8-2.495,1.251-3.712a.33.33,0,0,1-.441-.052c-.892-.935-5.327-4.658-2.671-6.1,1-.541,1.7.546,2.147,1.3A15.375,15.375,0,0,1,7.6,53.576q.544-1.376,1.135-2.707Q9.391,49.4,10.1,47.939a.367.367,0,0,1-.17-.049,8.441,8.441,0,0,1-2.569-2.244c-.493-.656-1.387-1.865-.617-2.656.742-.761,1.7.145,2.215.722a7.816,7.816,0,0,1,1.667,3.14c.654-1.333,1.329-2.664,2.013-4A16.816,16.816,0,0,1,9.75,39.775c-.579-.789-.932-1.934.051-2.573a1.947,1.947,0,0,1,2.574.721A6.407,6.407,0,0,1,13.591,41c.86-1.662,1.724-3.327,2.567-5a21.159,21.159,0,0,1-3.1-2.616c-.541-.563-1.243-1.5-.41-2.166,1.548-1.245,3.286,1.935,4.077,3.639q.929-1.872,1.8-3.765a.332.332,0,0,1-.107-.044,46.69,46.69,0,0,1-4.567-3.1c-.645-.558-1.135-1.694-.247-2.306,1.008-.695,2.061.478,2.745,1.105a12.208,12.208,0,0,1,2.664,3.263c.635-1.427,1.232-2.866,1.78-4.32a37.05,37.05,0,0,1-3.478-3.1c-.528-.6-.787-1.7.1-2.125.958-.461,1.915.6,2.529,1.2a6.213,6.213,0,0,1,1.522,2.158c.5-1.465.945-2.946,1.317-4.446a.374.374,0,0,1-.372-.063l-2.316-1.9a14.75,14.75,0,0,1-1.851-1.552c-.487-.56-.7-1.664.188-1.982s2.247.774,2.867,1.324a7.157,7.157,0,0,1,1.837,2.622,41.722,41.722,0,0,0,.677-4.253.348.348,0,0,1-.106-.005,10.812,10.812,0,0,1-4.227-2.123c-.641-.53-1.894-1.551-1.1-2.493.7-.837,2.051-.367,2.814.1a8.114,8.114,0,0,1,2.727,3.408,37.37,37.37,0,0,0,.083-4.242.341.341,0,0,1-.029-.042C23.4,6.783,21.348.314,24.249.01c3.013-.316.885,7.168.526,8.623.019.734.02,1.463,0,2.187a5.71,5.71,0,0,1,1.186-1.6c.8-.756,2.287-1.717,3.439-1.3,1.345.49.571,1.836-.162,2.494a21.127,21.127,0,0,1-4.4,2.815.392.392,0,0,1-.241.194q-.2,1.95-.576,3.857a11.157,11.157,0,0,1,3.325-1.824c.791-.3,2.219-.914,2.665.257.5,1.306-1.122,2.164-2.033,2.549a7.6,7.6,0,0,1-4.263.451c-.384,1.67-.857,3.316-1.4,4.943a5.534,5.534,0,0,1,2.923-1.209c.959-.091,2.474,0,2.958,1.041,1.279,2.755-5.211,2.235-6.214,2.215a.342.342,0,0,1-.317-.21q-.742,2.012-1.6,3.988a7.922,7.922,0,0,1,3.484-.982c.873-.036,2.792-.066,3.267.889.565,1.137-1.149,1.765-1.924,1.978a10.849,10.849,0,0,1-5.365-.328.365.365,0,0,1-.124-.058c-.544,1.2-1.11,2.394-1.691,3.58a5.235,5.235,0,0,1,2.5-.59c.955.019,2.637.3,2.942,1.439.69,2.585-4.562,1.388-6.218.841a.35.35,0,0,1-.095.055c-.768,1.527-1.55,3.046-2.333,4.559a7.538,7.538,0,0,1,3.668-.507c.777.147,2.022.716,1.945,1.717-.082,1.05-1.845,1.3-2.583,1.407a7.007,7.007,0,0,1-4.036-.667c-.746,1.448-1.48,2.893-2.19,4.339a17.279,17.279,0,0,1,3.952-.2,1.3,1.3,0,0,1,1.24,1.376c-.353,2.2-4.461.465-5.459.041a.4.4,0,0,1-.216-.219c-.814,1.7-1.6,3.458-2.322,5.265,1.79-1.046,4.341-2,5.183.344a.4.4,0,0,1-.263.475,9.546,9.546,0,0,1-5.463.581c-.53,1.4-1.017,2.83-1.451,4.273,1.659-.493,7.208-1.761,6.462.962-.322,1.179-1.925,1.435-2.92,1.571A4.962,4.962,0,0,1,6.083,60.6a48.94,48.94,0,0,0-1.148,5.351c1.3-.8,5.259-2.763,5.658-.715.189.976-1.1,1.688-1.779,2.03a6.583,6.583,0,0,1-3.828.645.381.381,0,0,1-.282-.182c-.736,6.686.238,13.362,4.275,19.259.279.408-.373.794-.649.39-4.093-5.979-5.1-12.91-4.353-19.816C2.326,67.114-1.062,65.513.327,63.339Z" transform="matrix(0.891, 0.454, -0.454, 0.891, 2467.222, 4451.465)" fill="url(#linear-gradient)"/>
    <path id="Path_467" data-name="Path 467" d="M203.566,325.453c1.252-1.959,2.951.459,3.94,2.048a50.082,50.082,0,0,1,1.086-5.059c-1.773-.635-4.467-2.406-3.484-4.4a1.341,1.341,0,0,1,2.2-.3,6.053,6.053,0,0,1,1.015,1.625q.37.7.742,1.4c.378-1.256.8-2.495,1.251-3.712a.33.33,0,0,1-.441-.052c-.893-.935-5.327-4.658-2.671-6.1,1-.541,1.7.546,2.147,1.3a15.373,15.373,0,0,1,1.491,3.486q.544-1.376,1.135-2.707.654-1.469,1.358-2.929a.368.368,0,0,1-.17-.049,8.442,8.442,0,0,1-2.569-2.244c-.493-.656-1.387-1.865-.617-2.656.742-.761,1.7.145,2.215.722a7.817,7.817,0,0,1,1.667,3.14c.654-1.333,1.329-2.664,2.013-4a16.811,16.811,0,0,1-2.885-3.081c-.579-.789-.932-1.934.051-2.573a1.947,1.947,0,0,1,2.573.721,6.407,6.407,0,0,1,1.216,3.082c.86-1.662,1.724-3.327,2.567-5a21.159,21.159,0,0,1-3.1-2.616c-.541-.563-1.243-1.5-.41-2.166,1.548-1.245,3.286,1.935,4.077,3.639q.929-1.872,1.8-3.765a.334.334,0,0,1-.107-.044,46.7,46.7,0,0,1-4.567-3.1c-.645-.558-1.135-1.694-.247-2.306,1.008-.695,2.061.478,2.745,1.105a12.209,12.209,0,0,1,2.664,3.263c.635-1.427,1.232-2.866,1.78-4.32a37.051,37.051,0,0,1-3.478-3.1c-.528-.6-.787-1.7.1-2.125.958-.461,1.915.6,2.529,1.2a6.214,6.214,0,0,1,1.522,2.158c.5-1.465.945-2.946,1.317-4.446a.374.374,0,0,1-.372-.063l-2.316-1.9a14.745,14.745,0,0,1-1.851-1.552c-.487-.56-.7-1.664.188-1.982s2.247.773,2.867,1.324a7.156,7.156,0,0,1,1.837,2.622,41.736,41.736,0,0,0,.677-4.253.347.347,0,0,1-.106-.005,10.811,10.811,0,0,1-4.227-2.123c-.641-.53-1.894-1.551-1.1-2.493.7-.837,2.051-.367,2.814.1a8.113,8.113,0,0,1,2.727,3.408,37.378,37.378,0,0,0,.083-4.242.335.335,0,0,1-.029-.042c-.588-1.391-2.635-7.86.265-8.164,3.013-.316.886,7.168.526,8.623.019.734.02,1.463,0,2.187a5.712,5.712,0,0,1,1.186-1.6c.8-.756,2.287-1.717,3.439-1.3,1.345.49.571,1.836-.162,2.494a21.123,21.123,0,0,1-4.4,2.815.392.392,0,0,1-.241.194q-.2,1.95-.576,3.857a11.158,11.158,0,0,1,3.325-1.824c.791-.3,2.219-.914,2.665.257.5,1.306-1.122,2.164-2.033,2.548a7.6,7.6,0,0,1-4.263.451c-.384,1.67-.857,3.316-1.4,4.943a5.533,5.533,0,0,1,2.923-1.209c.959-.091,2.474,0,2.958,1.041,1.279,2.755-5.211,2.235-6.214,2.215a.342.342,0,0,1-.317-.21q-.742,2.012-1.6,3.988a7.922,7.922,0,0,1,3.484-.982c.873-.036,2.792-.066,3.267.889.565,1.137-1.149,1.765-1.924,1.978a10.849,10.849,0,0,1-5.365-.328.366.366,0,0,1-.124-.058c-.544,1.2-1.11,2.394-1.691,3.58a5.235,5.235,0,0,1,2.5-.59c.955.019,2.637.3,2.942,1.439.69,2.585-4.562,1.388-6.218.841a.349.349,0,0,1-.095.055c-.768,1.527-1.55,3.046-2.333,4.559a7.537,7.537,0,0,1,3.668-.507c.777.147,2.022.716,1.945,1.717-.082,1.05-1.845,1.3-2.583,1.407a7.007,7.007,0,0,1-4.036-.667c-.746,1.448-1.48,2.893-2.19,4.339a17.278,17.278,0,0,1,3.952-.2,1.3,1.3,0,0,1,1.24,1.376c-.353,2.2-4.461.465-5.459.041a.4.4,0,0,1-.216-.219c-.814,1.7-1.6,3.458-2.322,5.265,1.79-1.046,4.341-2,5.183.344a.4.4,0,0,1-.263.475,9.545,9.545,0,0,1-5.463.581c-.53,1.4-1.017,2.83-1.451,4.273,1.659-.493,7.208-1.761,6.462.962-.322,1.179-1.925,1.435-2.92,1.571a4.962,4.962,0,0,1-3.976-1.024,48.923,48.923,0,0,0-1.148,5.351c1.3-.8,5.259-2.763,5.658-.715.189.977-1.1,1.688-1.779,2.03a6.583,6.583,0,0,1-3.828.645.381.381,0,0,1-.282-.182c-.736,6.686.238,13.362,4.274,19.259.279.408-.373.794-.649.39-4.093-5.979-5.1-12.91-4.353-19.816C205.565,329.228,202.177,327.627,203.566,325.453Z" transform="translate(2227.402 4178.734)" fill="url(#linear-gradient-2)"/>
  </g>
</svg>
