<svg xmlns="http://www.w3.org/2000/svg" xmlns:xlink="http://www.w3.org/1999/xlink" width="77.067" height="85.295" viewBox="0 0 77.067 85.295">
  <defs>
    <linearGradient id="linear-gradient" x1="0.722" y1="0.103" x2="0.24" y2="0.662" gradientUnits="objectBoundingBox">
      <stop offset="0" stop-color="#bf94f1"/>
      <stop offset="1" stop-color="#00626d"/>
    </linearGradient>
    <linearGradient id="linear-gradient-2" x1="152.01" y1="-13.416" x2="152.519" y2="-12.962" gradientUnits="objectBoundingBox">
      <stop offset="0" stop-color="#34a7a4"/>
      <stop offset="1" stop-color="#146d6b"/>
    </linearGradient>
  </defs>
  <g id="Group_277" data-name="Group 277" transform="translate(-1255.471 -4291.353)">
    <g id="Group_234" data-name="Group 234" transform="translate(1258.881 4328.229)">
      <path id="Path_480" data-name="Path 480" d="M146.932,350.773c-.625.522,19.824-25.658,45.763-33.884s30.6-3.55,26.643-1.488-6.161,3.37-6.161,3.37,5.786,10.353-3.1,12.085a49.965,49.965,0,0,1-15.272.795s9.019,10.716.091,11.936a73.555,73.555,0,0,1-18.045-.119s10.812,2.544,5.977,6.22S155.232,343.838,146.932,350.773Z" transform="translate(-146.918 -312.199)" fill="url(#linear-gradient)"/>
      <g id="Group_120" data-name="Group 120" transform="translate(5.087 1.488)">
        <path id="Path_481" data-name="Path 481" d="M168.188,325.677c-.2-.07-.332.249-.127.319a146.436,146.436,0,0,1,23.691,10.572q-.1-.25-.2-.5A146.6,146.6,0,0,0,168.188,325.677Z" transform="translate(-145.478 -312.882)" fill="#186c77"/>
        <path id="Path_482" data-name="Path 482" d="M180.874,336a.173.173,0,0,0-.039.342,79.693,79.693,0,0,1,23.762,6.282c.287.011.582.019.881.028A79.959,79.959,0,0,0,180.874,336Z" transform="translate(-172.701 -312.264)" fill="#186c77"/>
        <path id="Path_483" data-name="Path 483" d="M183.79,343.094c-.213,0-.255.34-.039.342a90.076,90.076,0,0,1,28.935,5.1,6.254,6.254,0,0,0,.608-.147A90.283,90.283,0,0,0,183.79,343.094Z" transform="translate(-183.608 -311.839)" fill="#186c77"/>
        <path id="Path_484" data-name="Path 484" d="M197.266,341.311c-2.952-1.564-6.028-2.9-9.085-4.235-3.151-1.371-6.323-2.7-9.516-3.968a33.782,33.782,0,0,0-9.279-2.512c-.214-.019-.254.322-.039.342a33.422,33.422,0,0,1,9.191,2.488c3.091,1.223,6.162,2.512,9.213,3.835,2.948,1.279,5.9,2.584,8.766,4.043.482.246.962.5,1.436.77.137-.053.268-.108.391-.169C197.989,341.7,197.629,341.5,197.266,341.311Z" transform="translate(-153.394 -312.587)" fill="#186c77"/>
        <path id="Path_485" data-name="Path 485" d="M151.572,313.939l7.54,3.5.372-.2L151.7,313.62C151.5,313.528,151.375,313.847,151.572,313.939Z" transform="translate(-95.74 -313.603)" fill="#186c77"/>
        <path id="Path_486" data-name="Path 486" d="M152.492,316.263c-.213-.038-.252.3-.039.342a59.431,59.431,0,0,1,18.457,6.66c-.026-.148-.055-.295-.087-.44A59.862,59.862,0,0,0,152.492,316.263Z" transform="translate(-108.054 -313.444)" fill="#186c77"/>
        <path id="Path_487" data-name="Path 487" d="M163.938,322c-.206-.058-.334.26-.126.318a107.125,107.125,0,0,1,22.019,8.933c.209-.012.422-.023.638-.037A107.258,107.258,0,0,0,163.938,322Z" transform="translate(-135.69 -313.102)" fill="#186c77"/>
        <path id="Path_488" data-name="Path 488" d="M168.84,323.157c-4.152-2.263-8.623-4.166-13.4-4.07-.215.005-.165.346.048.341,4.824-.1,9.341,1.907,13.515,4.2a84.406,84.406,0,0,1,10,6.482c.129-.044.254-.091.376-.141A84.82,84.82,0,0,0,168.84,323.157Z" transform="translate(-119.69 -313.276)" fill="#186c77"/>
      </g>
      <path id="Path_489" data-name="Path 489" d="M192.7,316.888c-25.939,8.227-46.387,34.408-45.763,33.885a9.294,9.294,0,0,1,2.52-1.471c4.766-5.551,23.113-25,45.158-31.541,14.755-4.381,22.625-4.759,25.956-3.9C220.307,311.922,213.056,310.432,192.7,316.888Z" transform="translate(-146.927 -312.199)" fill="#186c77"/>
    </g>
    <g id="Group_129" data-name="Group 129" transform="translate(1255.471 4291.353)">
      <path id="Path_519" data-name="Path 519" d="M184.85,373.484s5.055-36.933,15.593-54.472c10.607-17.655,29.942-34.762,31.67-30.022s-5.374,14.286-5.374,14.286,10.364,11.4-6.623,20.287c0,0,11.277,2.206,5.007,8.7s-11.493,8.471-11.493,8.471,6.081,1.434,3.681,5.936S194.778,356.52,184.85,373.484Z" transform="translate(-184.85 -288.189)" fill="url(#linear-gradient-2)"/>
      <g id="Group_128" data-name="Group 128" transform="translate(2.143 5.932)">
        <path id="Path_520" data-name="Path 520" d="M198.345,331.133a56.387,56.387,0,0,0-6.085,4.377c-.043.178-.088.354-.132.532a57.718,57.718,0,0,1,32.105-13.148l.248-.018.391-.345A58.014,58.014,0,0,0,198.345,331.133Z" transform="translate(-189.355 -281.881)" fill="#12605c"/>
        <path id="Path_521" data-name="Path 521" d="M198.851,343.125q-1.626,1.255-3.185,2.6c-.035.176-.071.354-.1.528A79.5,79.5,0,0,1,225.6,329.932c.274-.079.549-.152.825-.228a2.987,2.987,0,0,0-.05-.317A79.62,79.62,0,0,0,198.851,343.125Z" transform="translate(-195.562 -279.438)" fill="#12605c"/>
        <path id="Path_522" data-name="Path 522" d="M194.66,323.677q-2.873,1.353-5.612,2.975c-.05.157-.1.315-.148.472a68.739,68.739,0,0,1,31.716-9.612q1.207-.059,2.416-.072a2.908,2.908,0,0,0-.121-.319A68.919,68.919,0,0,0,194.66,323.677Z" transform="translate(-183.136 -283.81)" fill="#12605c"/>
        <path id="Path_523" data-name="Path 523" d="M189.176,307.632l-.43.59a108.191,108.191,0,0,1,22.154-8.512q-.134-.173-.224-.281A108.636,108.636,0,0,0,189.176,307.632Z" transform="translate(-170.794 -290.115)" fill="#12605c"/>
        <path id="Path_524" data-name="Path 524" d="M186.438,298.356q-.549.576-1.1,1.169a34.849,34.849,0,0,1,17.483-6.621c.041-.114.079-.228.117-.342A35.107,35.107,0,0,0,186.438,298.356Z" transform="translate(-158.201 -292.563)" fill="#12605c"/>
        <path id="Path_525" data-name="Path 525" d="M189.612,311.043q-1.3.535-2.581,1.126-.157.254-.312.511a71.435,71.435,0,0,1,25.768-6.56c1.183-.072,2.367-.1,3.551-.115.011-.11.02-.218.027-.327A71.571,71.571,0,0,0,189.612,311.043Z" transform="translate(-173.209 -287.888)" fill="#12605c"/>
        <path id="Path_526" data-name="Path 526" d="M216.135,312.144c.681.008,1.362.031,2.041.064q.183-.148.358-.3a58.492,58.492,0,0,0-24.85,4.115q-1.63.653-3.215,1.408c-.069.159-.138.316-.208.476A58.279,58.279,0,0,1,216.135,312.144Z" transform="translate(-180.486 -285.696)" fill="#12605c"/>
      </g>
      <path id="Path_527" data-name="Path 527" d="M203.786,318.342C212,304.67,225.447,291.331,231.9,288.207c-5.165.619-20.905,15.5-30.1,30.8-10.538,17.54-15.593,54.472-15.593,54.472a40.883,40.883,0,0,1,2.44-3.685C190.106,360.623,195.07,332.849,203.786,318.342Z" transform="translate(-186.21 -288.183)" fill="#45bab4"/>
    </g>
  </g>
</svg>
