<svg xmlns="http://www.w3.org/2000/svg" xmlns:xlink="http://www.w3.org/1999/xlink" width="84.706" height="72.875" viewBox="0 0 84.706 72.875">
  <defs>
    <linearGradient id="linear-gradient" x1="224.99" y1="-5.437" x2="225.324" y2="-5.194" gradientUnits="objectBoundingBox">
      <stop offset="0" stop-color="#5acf8b"/>
      <stop offset="1" stop-color="#1ba365"/>
    </linearGradient>
    <linearGradient id="linear-gradient-2" x1="447.213" y1="-20.26" x2="447.979" y2="-19.637" xlink:href="#linear-gradient"/>
    <linearGradient id="linear-gradient-3" x1="181.119" y1="-1.964" x2="181.728" y2="-1.221" xlink:href="#linear-gradient"/>
    <linearGradient id="linear-gradient-4" x1="193.486" y1="5.399" x2="193.183" y2="5.609" xlink:href="#linear-gradient"/>
    <linearGradient id="linear-gradient-5" x1="173.089" y1="8.744" x2="172.706" y2="9.193" xlink:href="#linear-gradient"/>
    <linearGradient id="linear-gradient-6" x1="89.423" y1="-239.55" x2="89.598" y2="-237.792" xlink:href="#linear-gradient"/>
    <linearGradient id="linear-gradient-7" x1="0.5" x2="0.5" y2="1" gradientUnits="objectBoundingBox">
      <stop offset="0" stop-color="#bf94f1"/>
      <stop offset="1" stop-color="#00626d"/>
    </linearGradient>
  </defs>
  <g id="Group_271" data-name="Group 271" transform="translate(-1259.782 -4467.125)">
    <g id="Group_270" data-name="Group 270" transform="translate(1259.782 4467.125)">
      <path id="Path_563" data-name="Path 563" d="M332.356,414.7c1.911-10.046,3.944-20.121,7.5-29.683s8.716-18.662,16.108-25.524c1.5-1.39,3.4-2.77,5.37-2.3,1.758.421,2.905,2.231,3.288,4.044a12.087,12.087,0,0,1-1.525,8.1,42.319,42.319,0,0,1-4.966,6.7,136.32,136.32,0,0,0-20.592,33.821c-.952,2.242-1.822,4.939-.568,7.019Z" transform="translate(-293.277 -344.639)" fill="url(#linear-gradient)"/>
      <path id="Path_564" data-name="Path 564" d="M358.432,349.321c-1.633-1.225-3.97-2.016-5.613-.8-1.2.883-1.583,2.507-1.845,4a88.284,88.284,0,0,0,14.291,65.017l.274,1.211c-1.847-14.41-1.675-29.025-.667-43.522.323-4.654.73-9.359-.005-13.963S362.1,352.07,358.432,349.321Z" transform="translate(-317.513 -347.913)" fill="url(#linear-gradient-2)"/>
      <path id="Path_565" data-name="Path 565" d="M359.688,369.281c-2.32-.791-4.762.591-6.811,1.96-6.891,4.605-13.525,9.732-19,16.026a49.575,49.575,0,0,0-11.227,21.072c9.489-10.137,22.1-16.718,33.5-24.65,2.5-1.742,5.074-3.708,6.223-6.58S362.557,370.257,359.688,369.281Z" transform="translate(-278.135 -340.38)" fill="url(#linear-gradient-3)"/>
      <path id="Path_566" data-name="Path 566" d="M382.56,385.352c-3.608-10.165-9.305-19.816-17.7-26.35a14.33,14.33,0,0,0-6.307-3.178,6.321,6.321,0,0,0-6.3,2.409,6.867,6.867,0,0,0-.416,5.967,17.833,17.833,0,0,0,3.265,5.188c4.97,6.07,10.541,11.6,15.44,17.734s9.176,13,11,20.708a28.948,28.948,0,0,0,1.842,6.412c1,1.986,2.863,3.7,5.039,3.722l1.091-1C387.852,406.279,386.168,395.519,382.56,385.352Z" transform="translate(-343.751 -345.127)" fill="url(#linear-gradient-4)"/>
      <path id="Path_567" data-name="Path 567" d="M391.913,406.647c-5-12.234-15.129-21.331-24.927-29.974-2.891-2.549-6.139-5.24-9.947-5.218-3.223.019-6.577,2.872-6.048,6.138.376,2.321,2.423,3.913,4.354,5.177,6.509,4.263,13.533,7.628,20.239,11.558s13.2,8.522,18.021,14.716Z" transform="translate(-347.271 -339.522)" fill="url(#linear-gradient-5)"/>
      <path id="Path_568" data-name="Path 568" d="M358.688,413.427a144.443,144.443,0,0,1-7.258-55.35c.039-.612-.887-.545-.926.06a145.122,145.122,0,0,0,6.25,52.346C357.375,411.479,358.023,412.459,358.688,413.427Z" transform="translate(-311.365 -344.443)" fill="#018673"/>
      <path id="Path_569" data-name="Path 569" d="M354.938,384.67c-1.115.678-2.159,1.892-1.881,3.194a3.812,3.812,0,0,0,1.823,2.128,52.733,52.733,0,0,0,40.888,7.816l.764.14a132.589,132.589,0,0,1-25.117-10.617,36.833,36.833,0,0,0-8-3.532A11.1,11.1,0,0,0,354.938,384.67Z" transform="translate(-353.011 -335.281)" fill="url(#linear-gradient-6)"/>
      <path id="Path_570" data-name="Path 570" d="M387.862,396.622A86.068,86.068,0,0,1,354.3,387c-.34-.178-.537.4-.2.576a86.51,86.51,0,0,0,31.588,9.473C386.413,396.923,387.139,396.779,387.862,396.622Z" transform="translate(-345.576 -333.995)" fill="#018673"/>
      <path id="Path_571" data-name="Path 571" d="M360.694,364.865c-5.6,8.545-11.635,16.94-16.651,25.871-3.776,6.722-6.572,14.2-6.381,21.959l.792.374c-.34-8.5,3.118-16.638,7.4-23.846,4.856-8.182,10.333-16.01,15.545-23.956C361.684,364.827,360.981,364.428,360.694,364.865Z" transform="translate(-297.111 -341.939)" fill="#018673"/>
      <path id="Path_572" data-name="Path 572" d="M330.7,405.341q1.19-1.239,2.439-2.409a65.3,65.3,0,0,1,8.212-10.184c5.523-5.805,11.158-11.633,17.841-16.034.5-.331.022-1.146-.483-.814-6.98,4.6-12.883,10.72-18.62,16.813A55.692,55.692,0,0,0,330.7,405.341Z" transform="translate(-285.615 -337.966)" fill="#018673"/>
      <path id="Path_573" data-name="Path 573" d="M353.066,362.323c-.517-.514-1.218.378-.705.888a95.1,95.1,0,0,1,26.608,52.26,4.236,4.236,0,0,0,1.162.2A96.382,96.382,0,0,0,353.066,362.323Z" transform="translate(-335.486 -342.832)" fill="#018673"/>
      <path id="Path_574" data-name="Path 574" d="M351.184,377.2a114.069,114.069,0,0,1,31.538,26.5,43.254,43.254,0,0,1,3.208,3.63l-1.693-2.4c-.259-.633-.54-1.253-.826-1.871a115.311,115.311,0,0,0-31.847-26.73C351.042,376.034,350.665,376.906,351.184,377.2Z" transform="translate(-339.596 -337.806)" fill="#018673"/>
    </g>
    <circle id="Ellipse_10" data-name="Ellipse 10" cx="8.5" cy="8.5" r="8.5" transform="translate(1296 4523)" fill="url(#linear-gradient-7)"/>
  </g>
</svg>
