<svg xmlns="http://www.w3.org/2000/svg" xmlns:xlink="http://www.w3.org/1999/xlink" width="108.615" height="113.077" viewBox="0 0 108.615 113.077">
  <defs>
    <linearGradient id="linear-gradient" x1="0.807" y1="0.087" x2="0.395" y2="1.007" gradientUnits="objectBoundingBox">
      <stop offset="0" stop-color="#5a5acf"/>
      <stop offset="1" stop-color="#34a7a4"/>
    </linearGradient>
  </defs>
  <g id="Group_272" data-name="Group 272" transform="translate(43.62) rotate(30)">
    <path id="Path_534" data-name="Path 534" d="M348.734,383.142c-1.756-2.526-5.142-3.907-7.972-2.82-3.134,1.2-5.594,5.089-8.832,4.222a2.384,2.384,0,0,1-1.691-1.445c-.476-1.428.872-2.784,2.151-3.524,3.149-1.82,6.785-2.61,9.919-4.454s5.85-5.358,5.1-8.988c-.771-3.727-5.633-5.8-8.744-3.724-1.425.95-2.376,2.5-3.733,3.55s-3.552,1.417-4.586.032c-1.247-1.667.292-4.017,1.909-5.3,2.091-1.665,4.452-2.948,6.509-4.657a10.9,10.9,0,0,0,4.2-6.684c.346-2.695-1.2-5.751-3.792-6.3-4.043-.86-7.788,4.332-11.71,3-2.323-.786-3.415-3.581-3.487-6.092s.571-5.014.37-7.517a11.129,11.129,0,0,0-6.934-9.353,5.47,5.47,0,0,0-4.113-.133c-2.764,1.235-3.052,5.081-2.912,8.175q.307,6.859.615,13.721c.083,1.852-.286,4.308-2.071,4.573-1.922.286-2.862-2.256-4.206-3.7-2-2.139-5.759-1.748-7.713.435a8.273,8.273,0,0,0-1.131,8.353,14.466,14.466,0,0,0,5.685,6.52,4.129,4.129,0,0,1,1.849,1.855c.544,1.568-1.206,3.162-2.823,3.058s-2.954-1.276-4.121-2.428-2.394-2.4-3.982-2.732c-2.432-.5-4.834,1.453-5.772,3.813s-2.334,4.73-2.154,7.274c.234,3.3,2.38,7.451,5.243,8.963.909.48,1.949.648,2.868,1.109a2.627,2.627,0,0,1,1.641,2.422,2.243,2.243,0,0,1-1.995,1.8,5.484,5.484,0,0,1-2.774-.573c-3.113-1.3-6.4-3.238-9.619-2.253-3.915,1.195-5.517,6.483-4.055,10.4s5.068,6.563,8.767,8.34,7.241,5.215,31.559,7.191a31.879,31.879,0,0,0,28.992-9.384,19.223,19.223,0,0,0,4.746-7.826A10.773,10.773,0,0,0,348.734,383.142Z" transform="translate(-275.329 -322.606)" fill="url(#linear-gradient)"/>
    <path id="Path_535" data-name="Path 535" d="M324.645,389.965c.4.05.4-.6,0-.651a34.405,34.405,0,0,0-24.056,6.084,163.834,163.834,0,0,0,5.959-19.785l.028-.018a181.865,181.865,0,0,0,20.222-9.9.323.323,0,0,0-.32-.562,180.781,180.781,0,0,1-19.751,9.7,164.156,164.156,0,0,0,3.073-17.99.271.271,0,0,0,.093-.122,24.657,24.657,0,0,1,13.068-9.644c.39-.12.224-.748-.169-.628a25.318,25.318,0,0,0-12.848,9.1q.295-2.778.495-5.566a163.722,163.722,0,0,0,.318-17.146.317.317,0,0,0-.633,0,163.65,163.65,0,0,1-.782,22.3,16.58,16.58,0,0,0-9.671-8.506c-.386-.136-.552.492-.169.628a15.669,15.669,0,0,1,9.7,9.2,164.142,164.142,0,0,1-3.061,18.131,23.346,23.346,0,0,0-13.565-6.624c-.4-.05-.4.6,0,.649a22.671,22.671,0,0,1,13.343,6.663.394.394,0,0,0,0,.279,162.674,162.674,0,0,1-4.579,15.908q-.718,2.084-1.492,4.144a17.913,17.913,0,0,0-11.8-8.275c-.4-.078-.57.55-.169.627a17.279,17.279,0,0,1,11.679,8.418q-1.062,2.778-2.222,5.517c.214.029.43.058.648.086q1.152-2.727,2.2-5.5A33.9,33.9,0,0,1,324.645,389.965Z" transform="translate(-267.656 -316.422)" fill="#a1fff1"/>
  </g>
</svg>
