<svg xmlns="http://www.w3.org/2000/svg" xmlns:xlink="http://www.w3.org/1999/xlink" width="77.067" height="85.295" viewBox="0 0 77.067 85.295">
  <defs>
    <linearGradient id="linear-gradient" x1="0.278" y1="0.103" x2="0.76" y2="0.662" gradientUnits="objectBoundingBox">
      <stop offset="0" stop-color="#5acf8b"/>
      <stop offset="1" stop-color="#018673"/>
    </linearGradient>
    <linearGradient id="linear-gradient-2" x1="0.5" x2="0.5" y2="1" gradientUnits="objectBoundingBox">
      <stop offset="0" stop-color="#ffe739"/>
      <stop offset="1" stop-color="#f89135"/>
    </linearGradient>
    <linearGradient id="linear-gradient-3" x1="0.5" x2="0.5" y2="1" gradientUnits="objectBoundingBox">
      <stop offset="0" stop-color="#018673"/>
      <stop offset="1" stop-color="#115a69"/>
    </linearGradient>
  </defs>
  <g id="Group_276" data-name="Group 276" transform="translate(-822.548 -4621.353)">
    <g id="Group_275" data-name="Group 275" transform="translate(822.548 4658.229)">
      <path id="Path_480" data-name="Path 480" d="M220.561,350.773c.625.522-19.824-25.658-45.763-33.884s-30.6-3.55-26.643-1.488,6.161,3.37,6.161,3.37-5.786,10.353,3.1,12.085a49.965,49.965,0,0,0,15.272.795s-9.019,10.716-.091,11.936a73.555,73.555,0,0,0,18.045-.119s-10.812,2.544-5.977,6.22S212.262,343.837,220.561,350.773Z" transform="translate(-146.918 -312.199)" fill="url(#linear-gradient)"/>
      <g id="Group_120" data-name="Group 120" transform="translate(4.827 1.488)">
        <path id="Path_481" data-name="Path 481" d="M191.521,325.677c.2-.07.332.249.127.319a146.439,146.439,0,0,0-23.691,10.572q.1-.25.2-.5A146.6,146.6,0,0,1,191.521,325.677Z" transform="translate(-150.487 -312.882)" fill="#186c77"/>
        <path id="Path_482" data-name="Path 482" d="M205.3,336a.173.173,0,0,1,.039.342,79.693,79.693,0,0,0-23.762,6.282c-.287.011-.582.019-.881.028A79.958,79.958,0,0,1,205.3,336Z" transform="translate(-149.725 -312.264)" fill="#186c77"/>
        <path id="Path_483" data-name="Path 483" d="M213.112,343.094c.213,0,.255.34.039.342a90.077,90.077,0,0,0-28.935,5.1,6.254,6.254,0,0,1-.608-.147A90.284,90.284,0,0,1,213.112,343.094Z" transform="translate(-149.551 -311.839)" fill="#186c77"/>
        <path id="Path_484" data-name="Path 484" d="M170.283,341.311c2.952-1.564,6.028-2.9,9.085-4.235,3.151-1.371,6.323-2.7,9.516-3.968a33.782,33.782,0,0,1,9.279-2.512c.214-.019.254.322.039.342a33.422,33.422,0,0,0-9.191,2.488c-3.091,1.223-6.162,2.512-9.213,3.835-2.948,1.279-5.9,2.584-8.766,4.043-.482.246-.962.5-1.436.77-.137-.053-.268-.108-.391-.169C169.56,341.7,169.92,341.5,170.283,341.311Z" transform="translate(-150.412 -312.587)" fill="#186c77"/>
        <path id="Path_485" data-name="Path 485" d="M159.385,313.939l-7.54,3.5-.372-.2,7.785-3.617C159.456,313.528,159.582,313.847,159.385,313.939Z" transform="translate(-151.473 -313.603)" fill="#186c77"/>
        <path id="Path_486" data-name="Path 486" d="M170.728,316.263c.213-.038.252.3.039.342a59.431,59.431,0,0,0-18.457,6.66c.026-.148.055-.295.087-.44A59.862,59.862,0,0,1,170.728,316.263Z" transform="translate(-151.423 -313.444)" fill="#186c77"/>
        <path id="Path_487" data-name="Path 487" d="M186.237,322c.206-.058.334.26.126.318a107.125,107.125,0,0,0-22.019,8.933c-.209-.012-.422-.023-.638-.037A107.258,107.258,0,0,1,186.237,322Z" transform="translate(-150.741 -313.102)" fill="#186c77"/>
        <path id="Path_488" data-name="Path 488" d="M165.837,323.157c4.152-2.263,8.623-4.166,13.4-4.07.215.005.165.346-.048.341-4.824-.1-9.341,1.907-13.515,4.2a84.4,84.4,0,0,0-10,6.482c-.129-.044-.254-.091-.376-.141A84.82,84.82,0,0,1,165.837,323.157Z" transform="translate(-151.244 -313.276)" fill="#186c77"/>
      </g>
      <path id="Path_489" data-name="Path 489" d="M174.8,316.888c25.939,8.227,46.387,34.408,45.763,33.885a9.294,9.294,0,0,0-2.52-1.471c-4.766-5.551-23.113-25-45.158-31.541-14.755-4.381-22.625-4.759-25.956-3.9C147.2,311.922,154.445,310.432,174.8,316.888Z" transform="translate(-146.918 -312.199)" fill="#186c77"/>
    </g>
    <g id="Group_274" data-name="Group 274" transform="translate(852.081 4621.353)">
      <path id="Path_519" data-name="Path 519" d="M232.384,373.484s-5.055-36.933-15.593-54.472c-10.607-17.655-29.942-34.762-31.67-30.022s5.374,14.286,5.374,14.286-10.364,11.4,6.623,20.286c0,0-11.277,2.206-5.007,8.7s11.493,8.471,11.493,8.471-6.081,1.434-3.681,5.936S222.457,356.52,232.384,373.484Z" transform="translate(-184.85 -288.189)" fill="url(#linear-gradient-2)"/>
      <g id="Group_128" data-name="Group 128" transform="translate(0.658 5.932)">
        <path id="Path_520" data-name="Path 520" d="M218.656,331.133a56.387,56.387,0,0,1,6.085,4.377c.043.178.088.354.132.532a57.719,57.719,0,0,0-32.105-13.148l-.248-.018-.391-.345A58.014,58.014,0,0,1,218.656,331.133Z" transform="translate(-182.913 -281.882)" fill="url(#linear-gradient-3)"/>
        <path id="Path_521" data-name="Path 521" d="M223.134,343.125q1.626,1.255,3.185,2.6c.035.176.071.354.1.528a79.5,79.5,0,0,0-30.036-16.319c-.274-.079-.549-.152-.825-.228a2.987,2.987,0,0,1,.05-.317A79.62,79.62,0,0,1,223.134,343.125Z" transform="translate(-181.69 -279.438)" fill="url(#linear-gradient-3)"/>
        <path id="Path_522" data-name="Path 522" d="M217.273,323.677q2.873,1.353,5.612,2.975c.05.157.1.315.148.472a68.739,68.739,0,0,0-31.716-9.612q-1.207-.059-2.416-.072a2.908,2.908,0,0,1,.121-.319A68.919,68.919,0,0,1,217.273,323.677Z" transform="translate(-184.064 -283.81)" fill="url(#linear-gradient-3)"/>
        <path id="Path_523" data-name="Path 523" d="M210.47,307.632l.43.59a108.191,108.191,0,0,0-22.154-8.511q.134-.173.224-.281A108.636,108.636,0,0,1,210.47,307.632Z" transform="translate(-184.119 -290.115)" fill="url(#linear-gradient-3)"/>
        <path id="Path_524" data-name="Path 524" d="M201.832,298.356q.549.576,1.1,1.169a34.848,34.848,0,0,0-17.483-6.621c-.041-.114-.079-.228-.117-.342A35.107,35.107,0,0,1,201.832,298.356Z" transform="translate(-185.335 -292.563)" fill="url(#linear-gradient-3)"/>
        <path id="Path_525" data-name="Path 525" d="M213.172,311.043q1.3.535,2.581,1.126.157.254.312.511a71.435,71.435,0,0,0-25.768-6.56c-1.183-.072-2.367-.1-3.551-.115-.011-.11-.02-.218-.027-.327A71.571,71.571,0,0,1,213.172,311.043Z" transform="translate(-184.842 -287.888)" fill="url(#linear-gradient-3)"/>
        <path id="Path_526" data-name="Path 526" d="M192.662,312.144c-.681.008-1.362.031-2.041.064q-.183-.148-.358-.3a58.492,58.492,0,0,1,24.85,4.115q1.63.653,3.215,1.408c.069.159.138.316.208.476A58.279,58.279,0,0,0,192.662,312.144Z" transform="translate(-183.579 -285.696)" fill="url(#linear-gradient-3)"/>
      </g>
      <path id="Path_527" data-name="Path 527" d="M214.323,318.342c-8.216-13.673-21.661-27.012-28.113-30.135,5.165.619,20.905,15.5,30.1,30.8,10.538,17.54,15.593,54.472,15.593,54.472a40.883,40.883,0,0,0-2.44-3.685C228,360.623,223.039,332.849,214.323,318.342Z" transform="translate(-184.366 -288.183)" fill="url(#linear-gradient-3)"/>
    </g>
  </g>
</svg>
