<svg xmlns="http://www.w3.org/2000/svg" xmlns:xlink="http://www.w3.org/1999/xlink" width="108.615" height="113.077" viewBox="0 0 108.615 113.077">
  <defs>
    <linearGradient id="linear-gradient" x1="0.807" y1="0.913" x2="0.395" y2="-0.007" gradientUnits="objectBoundingBox">
      <stop offset="0" stop-color="#e5d039"/>
      <stop offset="1" stop-color="#f89135"/>
    </linearGradient>
  </defs>
  <g id="Group_273" data-name="Group 273" transform="translate(108.615 75.552) rotate(150)">
    <path id="Path_534" data-name="Path 534" d="M73.405,26.7c-1.756,2.526-5.142,3.907-7.972,2.82C62.3,28.32,59.84,24.434,56.6,25.3a2.384,2.384,0,0,0-1.691,1.445c-.476,1.428.872,2.784,2.151,3.524,3.149,1.82,6.785,2.61,9.919,4.454s5.85,5.358,5.1,8.988c-.771,3.727-5.633,5.8-8.744,3.724-1.425-.95-2.376-2.5-3.733-3.55s-3.552-1.417-4.586-.032c-1.247,1.667.292,4.017,1.909,5.3,2.091,1.665,4.452,2.948,6.509,4.657a10.9,10.9,0,0,1,4.2,6.684c.346,2.695-1.2,5.751-3.792,6.3-4.043.86-7.788-4.332-11.71-3-2.323.786-3.415,3.581-3.487,6.092s.571,5.014.37,7.517a11.129,11.129,0,0,1-6.934,9.353,5.47,5.47,0,0,1-4.113.133c-2.764-1.235-3.052-5.081-2.912-8.175q.307-6.859.615-13.721c.083-1.852-.286-4.308-2.071-4.573-1.922-.286-2.862,2.256-4.206,3.7-2,2.139-5.759,1.748-7.714-.435a8.273,8.273,0,0,1-1.131-8.353,14.466,14.466,0,0,1,5.685-6.521,4.129,4.129,0,0,0,1.849-1.855c.544-1.568-1.206-3.162-2.823-3.058S22.3,45.177,21.133,46.33s-2.394,2.4-3.982,2.732c-2.432.5-4.834-1.453-5.772-3.813s-2.334-4.73-2.154-7.274c.234-3.3,2.38-7.451,5.243-8.963.909-.48,1.949-.648,2.868-1.109a2.627,2.627,0,0,0,1.641-2.422,2.243,2.243,0,0,0-1.995-1.8,5.484,5.484,0,0,0-2.774.573c-3.113,1.3-6.4,3.238-9.619,2.253C.674,25.312-.928,20.024.534,16.106S5.6,9.543,9.3,7.766,16.542,2.55,40.86.575A31.879,31.879,0,0,1,69.852,9.958,19.223,19.223,0,0,1,74.6,17.784,10.773,10.773,0,0,1,73.405,26.7Z" transform="translate(0 0)" fill="url(#linear-gradient)"/>
    <path id="Path_535" data-name="Path 535" d="M37,12.023c.4-.05.4.6,0,.651A34.405,34.405,0,0,1,12.948,6.59a163.834,163.834,0,0,1,5.959,19.785l.028.018a181.865,181.865,0,0,1,20.222,9.9.323.323,0,0,1-.32.562,180.781,180.781,0,0,0-19.751-9.7,164.155,164.155,0,0,1,3.073,17.99.271.271,0,0,1,.093.122A24.657,24.657,0,0,0,35.319,54.91c.39.12.224.748-.169.628a25.318,25.318,0,0,1-12.848-9.1Q22.6,49.212,22.8,52a163.722,163.722,0,0,1,.318,17.146.317.317,0,0,1-.633,0,163.655,163.655,0,0,0-.782-22.3A16.58,16.58,0,0,1,12.03,55.35c-.386.136-.552-.492-.169-.628a15.669,15.669,0,0,0,9.7-9.2,164.141,164.141,0,0,0-3.061-18.131A23.346,23.346,0,0,1,4.93,34.016c-.4.05-.4-.6,0-.649A22.671,22.671,0,0,0,18.272,26.7a.394.394,0,0,1,0-.279,162.682,162.682,0,0,0-4.579-15.908Q12.975,8.433,12.2,6.373A17.913,17.913,0,0,1,.4,14.648c-.4.078-.57-.55-.169-.627A17.279,17.279,0,0,0,11.908,5.6Q10.846,2.825,9.686.086c.214-.029.43-.058.648-.086q1.152,2.727,2.2,5.5A33.9,33.9,0,0,0,37,12.023Z" transform="translate(19.985 1.673)" fill="#f6ffa1"/>
  </g>
</svg>
